<svg width="25" height="24" viewBox="0 0 25 24" fill="none" xmlns="http://www.w3.org/2000/svg">
<path d="M17.253 9.75169C17.253 7.76222 16.4627 5.85423 15.0559 4.44747C13.6491 3.0407 11.7412 2.25039 9.75169 2.25039C7.76222 2.25039 5.85423 3.0407 4.44747 4.44747C3.0407 5.85423 2.25039 7.76222 2.25039 9.75169C2.25039 11.7412 3.0407 13.6491 4.44747 15.0559C5.85423 16.4627 7.76222 17.253 9.75169 17.253C11.7412 17.253 13.6491 16.4627 15.0559 15.0559C16.4627 13.6491 17.253 11.7412 17.253 9.75169ZM15.8043 17.3983C14.1446 18.7157 12.0396 19.5034 9.75169 19.5034C4.36482 19.5034 0 15.1386 0 9.75169C0 4.36482 4.36482 0 9.75169 0C15.1386 0 19.5034 4.36482 19.5034 9.75169C19.5034 12.0396 18.7157 14.1446 17.3983 15.8043L23.676 22.0819C24.1167 22.5226 24.1167 23.2353 23.676 23.6713C23.2353 24.1073 22.5226 24.112 22.0866 23.6713L15.8043 17.3983Z" fill="#4B5563"/>
</svg>
