<svg width="115" height="40" viewBox="0 0 115 40" fill="none" xmlns="http://www.w3.org/2000/svg">
<path d="M5.53551 7V33.1818H0V7H5.53551Z" fill="white"/>
<path d="M9.98757 33.1818V13.5455H15.1779V17.0099H15.408C15.8171 15.8594 16.4989 14.9517 17.4535 14.2869C18.408 13.6222 19.5501 13.2898 20.8796 13.2898C22.2262 13.2898 23.3725 13.6264 24.3185 14.2997C25.2646 14.9645 25.8952 15.8679 26.2106 17.0099H26.4151C26.8157 15.8849 27.5401 14.9858 28.5884 14.3125C29.6452 13.6307 30.8938 13.2898 32.3342 13.2898C34.1665 13.2898 35.6538 13.8736 36.7958 15.0412C37.9464 16.2003 38.5217 17.8452 38.5217 19.9759V33.1818H33.0884V21.0497C33.0884 19.9588 32.7987 19.1406 32.2191 18.5952C31.6396 18.0497 30.9151 17.777 30.0458 17.777C29.0572 17.777 28.2859 18.0923 27.7319 18.723C27.1779 19.3452 26.9009 20.1676 26.9009 21.1903V33.1818H21.6211V20.9347C21.6211 19.9716 21.3441 19.2045 20.7901 18.6335C20.2447 18.0625 19.5245 17.777 18.6296 17.777C18.0245 17.777 17.479 17.9304 16.9933 18.2372C16.516 18.5355 16.1367 18.9574 15.8555 19.5028C15.5742 20.0398 15.4336 20.6705 15.4336 21.3949V33.1818H9.98757Z" fill="white"/>
<path d="M51.7724 33.5653C49.7525 33.5653 48.0138 33.1563 46.5565 32.3381C45.1076 31.5114 43.9911 30.3438 43.207 28.8352C42.4229 27.3182 42.0309 25.5241 42.0309 23.4531C42.0309 21.4332 42.4229 19.6605 43.207 18.1349C43.9911 16.6094 45.0948 15.4205 46.5181 14.5682C47.9499 13.7159 49.6289 13.2898 51.555 13.2898C52.8505 13.2898 54.0565 13.4986 55.1729 13.9162C56.2979 14.3253 57.2781 14.9432 58.1133 15.7699C58.957 16.5966 59.6133 17.6364 60.082 18.8892C60.5508 20.1335 60.7852 21.5909 60.7852 23.2614V24.7571H44.2042V21.3821H55.6587C55.6587 20.598 55.4883 19.9034 55.1474 19.2983C54.8065 18.6932 54.3335 18.2202 53.7283 17.8793C53.1317 17.5298 52.4371 17.3551 51.6445 17.3551C50.8178 17.3551 50.0849 17.5469 49.4457 17.9304C48.815 18.3054 48.3207 18.8125 47.9627 19.4517C47.6048 20.0824 47.4215 20.7855 47.413 21.5611V24.7699C47.413 25.7415 47.592 26.581 47.9499 27.2884C48.3164 27.9957 48.832 28.5412 49.4968 28.9247C50.1616 29.3082 50.9499 29.5 51.8619 29.5C52.467 29.5 53.021 29.4148 53.5238 29.2443C54.0266 29.0739 54.457 28.8182 54.815 28.4773C55.1729 28.1364 55.4457 27.7188 55.6332 27.2244L60.6701 27.5568C60.4144 28.767 59.8903 29.8239 59.0977 30.7273C58.3136 31.6222 57.2994 32.321 56.055 32.8239C54.8192 33.3182 53.3917 33.5653 51.7724 33.5653Z" fill="white"/>
<path d="M69.7852 7V33.1818H64.3391V7H69.7852Z" fill="white"/>
<path d="M83.0966 33.5653C81.0767 33.5653 79.3381 33.1563 77.8807 32.3381C76.4318 31.5114 75.3153 30.3438 74.5312 28.8352C73.7472 27.3182 73.3551 25.5241 73.3551 23.4531C73.3551 21.4332 73.7472 19.6605 74.5312 18.1349C75.3153 16.6094 76.419 15.4205 77.8423 14.5682C79.2741 13.7159 80.9531 13.2898 82.8793 13.2898C84.1747 13.2898 85.3807 13.4986 86.4972 13.9162C87.6222 14.3253 88.6023 14.9432 89.4375 15.7699C90.2812 16.5966 90.9375 17.6364 91.4062 18.8892C91.875 20.1335 92.1094 21.5909 92.1094 23.2614V24.7571H75.5284V21.3821H86.983C86.983 20.598 86.8125 19.9034 86.4716 19.2983C86.1307 18.6932 85.6577 18.2202 85.0526 17.8793C84.456 17.5298 83.7614 17.3551 82.9688 17.3551C82.142 17.3551 81.4091 17.5469 80.7699 17.9304C80.1392 18.3054 79.6449 18.8125 79.2869 19.4517C78.929 20.0824 78.7457 20.7855 78.7372 21.5611V24.7699C78.7372 25.7415 78.9162 26.581 79.2741 27.2884C79.6406 27.9957 80.1562 28.5412 80.821 28.9247C81.4858 29.3082 82.2741 29.5 83.1861 29.5C83.7912 29.5 84.3452 29.4148 84.848 29.2443C85.3509 29.0739 85.7812 28.8182 86.1392 28.4773C86.4972 28.1364 86.7699 27.7188 86.9574 27.2244L91.9943 27.5568C91.7386 28.767 91.2145 29.8239 90.4219 30.7273C89.6378 31.6222 88.6236 32.321 87.3793 32.8239C86.1435 33.3182 84.7159 33.5653 83.0966 33.5653Z" fill="white"/>
<path d="M104.536 33.5653C102.55 33.5653 100.832 33.1435 99.3835 32.2997C97.9432 31.4474 96.831 30.2628 96.0469 28.7457C95.2628 27.2202 94.8707 25.4517 94.8707 23.4403C94.8707 21.4119 95.2628 19.6392 96.0469 18.1222C96.831 16.5966 97.9432 15.4119 99.3835 14.5682C100.832 13.7159 102.55 13.2898 104.536 13.2898C106.521 13.2898 108.234 13.7159 109.675 14.5682C111.124 15.4119 112.24 16.5966 113.024 18.1222C113.808 19.6392 114.2 21.4119 114.2 23.4403C114.2 25.4517 113.808 27.2202 113.024 28.7457C112.24 30.2628 111.124 31.4474 109.675 32.2997C108.234 33.1435 106.521 33.5653 104.536 33.5653ZM104.561 29.3466C105.464 29.3466 106.219 29.0909 106.824 28.5795C107.429 28.0597 107.885 27.3523 108.192 26.4574C108.507 25.5625 108.665 24.544 108.665 23.402C108.665 22.2599 108.507 21.2415 108.192 20.3466C107.885 19.4517 107.429 18.7443 106.824 18.2244C106.219 17.7045 105.464 17.4446 104.561 17.4446C103.649 17.4446 102.882 17.7045 102.26 18.2244C101.646 18.7443 101.182 19.4517 100.866 20.3466C100.56 21.2415 100.406 22.2599 100.406 23.402C100.406 24.544 100.56 25.5625 100.866 26.4574C101.182 27.3523 101.646 28.0597 102.26 28.5795C102.882 29.0909 103.649 29.3466 104.561 29.3466Z" fill="white"/>
</svg>
