<svg width="28" height="32" viewBox="0 0 28 32" fill="none" xmlns="http://www.w3.org/2000/svg">
<g clip-path="url(#clip0_0_462)">
<path d="M14.0062 8.81245C10.0312 8.81245 6.82499 12.0187 6.82499 15.9937C6.82499 19.9687 10.0312 23.1749 14.0062 23.1749C17.9812 23.1749 21.1875 19.9687 21.1875 15.9937C21.1875 12.0187 17.9812 8.81245 14.0062 8.81245ZM14.0062 20.6625C11.4375 20.6625 9.33749 18.5687 9.33749 15.9937C9.33749 13.4187 11.4312 11.325 14.0062 11.325C16.5812 11.325 18.675 13.4187 18.675 15.9937C18.675 18.5687 16.575 20.6625 14.0062 20.6625ZM23.1562 8.5187C23.1562 9.44995 22.4062 10.1937 21.4812 10.1937C20.55 10.1937 19.8062 9.4437 19.8062 8.5187C19.8062 7.5937 20.5562 6.8437 21.4812 6.8437C22.4062 6.8437 23.1562 7.5937 23.1562 8.5187ZM27.9125 10.2187C27.8062 7.97495 27.2937 5.98745 25.65 4.34995C24.0125 2.71245 22.025 2.19995 19.7812 2.08745C17.4687 1.9562 10.5375 1.9562 8.22499 2.08745C5.98749 2.1937 3.99999 2.7062 2.35624 4.3437C0.712488 5.9812 0.206238 7.9687 0.0937378 10.2125C-0.0375122 12.525 -0.0375122 19.4562 0.0937378 21.7687C0.199988 24.0124 0.712488 26 2.35624 27.6375C3.99999 29.275 5.98124 29.7875 8.22499 29.9C10.5375 30.0312 17.4687 30.0312 19.7812 29.9C22.025 29.7937 24.0125 29.2812 25.65 27.6375C27.2875 26 27.8 24.0124 27.9125 21.7687C28.0437 19.4562 28.0437 12.5312 27.9125 10.2187ZM24.925 24.25C24.4375 25.475 23.4937 26.4187 22.2625 26.9125C20.4187 27.6437 16.0437 27.475 14.0062 27.475C11.9687 27.475 7.58749 27.6375 5.74999 26.9125C4.52499 26.425 3.58124 25.4812 3.08749 24.25C2.35624 22.4062 2.52499 18.0312 2.52499 15.9937C2.52499 13.9562 2.36249 9.57495 3.08749 7.73745C3.57499 6.51245 4.51874 5.5687 5.74999 5.07495C7.59374 4.3437 11.9687 4.51245 14.0062 4.51245C16.0437 4.51245 20.425 4.34995 22.2625 5.07495C23.4875 5.56245 24.4312 6.5062 24.925 7.73745C25.6562 9.5812 25.4875 13.9562 25.4875 15.9937C25.4875 18.0312 25.6562 22.4125 24.925 24.25Z" fill="white"/>
</g>
<defs>
<clipPath id="clip0_0_462">
<rect width="28" height="32" fill="white"/>
</clipPath>
</defs>
</svg>
