<svg width="36" height="32" viewBox="0 0 36 32" fill="none" xmlns="http://www.w3.org/2000/svg">
<path d="M34.3562 7.75625C33.9625 6.275 32.8062 5.1125 31.3375 4.71875C28.675 4 18 4 18 4C18 4 7.32499 4 4.66249 4.71875C3.19374 5.1125 2.03749 6.275 1.64374 7.75625C0.931244 10.4375 0.931244 16.025 0.931244 16.025C0.931244 16.025 0.931244 21.6125 1.64374 24.2938C2.03749 25.775 3.19374 26.8875 4.66249 27.2812C7.32499 28 18 28 18 28C18 28 28.675 28 31.3375 27.2812C32.8062 26.8875 33.9625 25.7688 34.3562 24.2938C35.0687 21.6125 35.0687 16.025 35.0687 16.025C35.0687 16.025 35.0687 10.4375 34.3562 7.75625ZM14.5125 21.1V10.95L23.4312 16.025L14.5125 21.1Z" fill="white"/>
</svg>
