<svg width="32" height="33" viewBox="0 0 32 33" fill="none" xmlns="http://www.w3.org/2000/svg">
<path d="M23.488 17.1997C22.463 16.7622 21.2755 17.0497 20.5692 17.9122L18.4942 20.4497C15.6191 18.781 13.219 16.3809 11.5503 13.5058L14.0816 11.437C14.9441 10.7308 15.2378 9.54326 14.7941 8.51823L11.794 1.51808C11.3252 0.418056 10.144 -0.194457 8.9752 0.0555482L1.97504 1.55558C0.825018 1.79934 0 2.81811 0 3.99938C0 18.4497 10.9502 30.35 25.0068 31.8437C25.6193 31.9062 26.2318 31.9563 26.8568 31.9813H26.8631C27.2443 31.9938 27.6194 32.0063 28.0006 32.0063C29.1819 32.0063 30.2007 31.1812 30.4444 30.0312L31.9445 23.0311C32.1945 21.8623 31.5819 20.681 30.4819 20.2122L23.4818 17.2122L23.488 17.1997ZM27.5944 28.9999C14.1128 28.7812 3.21882 17.8872 3.00632 4.40564L9.20645 3.07436L11.894 9.3495L9.65021 11.187C8.51269 12.1183 8.21893 13.7371 8.95645 15.0121C10.8877 18.3434 13.6628 21.1185 16.9941 23.0498C18.2692 23.7873 19.8879 23.4936 20.8192 22.356L22.6567 20.1122L28.9319 22.7998L27.5944 28.9999Z" fill="white"/>
</svg>
