<svg width="64" height="64" viewBox="0 0 64 64" fill="none" xmlns="http://www.w3.org/2000/svg">
<circle opacity="0.1" cx="32" cy="32" r="32" fill="#64748B"/>
<path d="M24.125 17.375C23.5062 17.375 23 17.8812 23 18.5V45.5C23 46.1188 23.5062 46.625 24.125 46.625H39.875C40.4937 46.625 41 46.1188 41 45.5V18.5C41 17.8812 40.4937 17.375 39.875 17.375H24.125ZM19.625 18.5C19.625 16.018 21.643 14 24.125 14H39.875C42.357 14 44.375 16.018 44.375 18.5V45.5C44.375 47.982 42.357 50 39.875 50H24.125C21.643 50 19.625 47.982 19.625 45.5V18.5ZM29.75 42.125H34.25C34.8687 42.125 35.375 42.6313 35.375 43.25C35.375 43.8687 34.8687 44.375 34.25 44.375H29.75C29.1313 44.375 28.625 43.8687 28.625 43.25C28.625 42.6313 29.1313 42.125 29.75 42.125Z" fill="#1E40AF"/>
</svg>
