<svg width="64" height="64" viewBox="0 0 64 64" fill="none" xmlns="http://www.w3.org/2000/svg">
<circle opacity="0.1" cx="32" cy="32" r="32" fill="#64748B"/>
<g clip-path="url(#clip0_0_339)">
<path d="M44.125 20.0469V26.2836C43.1898 26.7898 41.9031 27.282 40.2719 27.6828C37.8883 28.2734 34.9492 28.625 31.75 28.625C28.5508 28.625 25.6117 28.2734 23.2281 27.6828C21.5969 27.282 20.3102 26.7969 19.375 26.2836V20.0469L19.4172 20.0117C19.7898 19.6953 20.5352 19.2594 21.7516 18.8234C24.1492 17.9727 27.6859 17.375 31.75 17.375C35.8141 17.375 39.3508 17.9727 41.7484 18.8234C42.9648 19.2594 43.7031 19.6953 44.0828 20.0117L44.125 20.0469ZM44.125 29.9961V35.2836C43.1898 35.7898 41.9031 36.282 40.2719 36.6828C37.8883 37.2734 34.9492 37.625 31.75 37.625C28.5508 37.625 25.6117 37.2734 23.2281 36.6828C21.5969 36.282 20.3102 35.7969 19.375 35.2836V29.9961C20.3102 30.3687 21.3367 30.6922 22.4195 30.9594C25.1055 31.6203 28.3188 32 31.75 32C35.1812 32 38.3945 31.6203 41.0805 30.9594C42.1633 30.6922 43.1898 30.3758 44.125 29.9961ZM19.375 43.9531V39.0031C20.3102 39.3758 21.3367 39.6992 22.4195 39.9664C25.1055 40.6203 28.3188 41 31.75 41C35.1812 41 38.3945 40.6203 41.0805 39.9594C42.1633 39.6922 43.1898 39.3758 44.125 38.9961V43.9461L44.0828 43.9812C43.7102 44.2977 42.9648 44.7336 41.7484 45.1695C39.3508 46.0273 35.8141 46.625 31.75 46.625C27.6859 46.625 24.1492 46.0273 21.7516 45.1766C20.5352 44.7406 19.7969 44.3047 19.4172 43.9883L19.375 43.9531ZM44.2727 43.8055C44.2727 43.8055 44.2727 43.8125 44.2586 43.8195L44.2656 43.8055C44.2656 43.8055 44.2656 43.8055 44.2656 43.7984L44.2727 43.8055ZM19.2344 43.8055C19.2344 43.8055 19.2344 43.8125 19.2484 43.8195C19.2414 43.8125 19.2414 43.8055 19.2344 43.8055ZM44.2656 20.1805C44.2727 20.1875 44.2797 20.1945 44.2797 20.1945C44.2797 20.1945 44.2797 20.1875 44.2656 20.1805ZM47.5 44.375V19.625C47.5 16.5172 40.4477 14 31.75 14C23.0523 14 16 16.5172 16 19.625V44.375C16 47.4828 23.0523 50 31.75 50C40.4477 50 47.5 47.4828 47.5 44.375Z" fill="#1E40AE"/>
</g>
<defs>
<clipPath id="clip0_0_339">
<rect width="31.5" height="36" fill="white" transform="translate(16 14)"/>
</clipPath>
</defs>
</svg>
