<svg width="247" height="89" viewBox="0 0 247 89" fill="none" xmlns="http://www.w3.org/2000/svg">
<path d="M11.9545 15.925V72.4675H0V15.925H11.9545Z" fill="white"/>
<path d="M21.5692 72.4675V30.0607H32.7784V37.5426H33.2753C34.1588 35.0578 35.6312 33.0976 37.6927 31.662C39.7541 30.2263 42.2205 29.5085 45.0918 29.5085C47.9999 29.5085 50.4755 30.2355 52.5185 31.6896C54.5616 33.1252 55.9236 35.0762 56.6046 37.5426H57.0464C57.9114 35.1131 59.4759 33.1712 61.7398 31.7172C64.0221 30.2447 66.7186 29.5085 69.8292 29.5085C73.7864 29.5085 76.9982 30.7693 79.4646 33.2909C81.9493 35.7941 83.1917 39.3464 83.1917 43.9478V72.4675H71.4581V46.2669C71.4581 43.911 70.8323 42.1441 69.5807 40.9661C68.3291 39.7881 66.7646 39.1991 64.8872 39.1991C62.7521 39.1991 61.0864 39.8801 59.89 41.2422C58.6937 42.5858 58.0955 44.3619 58.0955 46.5706V72.4675H46.6931V46.0185C46.6931 43.9386 46.0949 42.2821 44.8986 41.0489C43.7206 39.8157 42.1653 39.1991 40.2327 39.1991C38.9259 39.1991 37.7479 39.5304 36.6988 40.193C35.6681 40.8372 34.849 41.7483 34.2416 42.9263C33.6342 44.0859 33.3305 45.4479 33.3305 47.0124V72.4675H21.5692Z" fill="white"/>
<path d="M111.808 73.2958C107.446 73.2958 103.691 72.4123 100.544 70.6454C97.4148 68.86 95.0036 66.3384 93.3103 63.0806C91.617 59.8044 90.7703 55.93 90.7703 51.4574C90.7703 47.0952 91.617 43.2668 93.3103 39.9722C95.0036 36.6775 97.3872 34.1099 100.461 32.2694C103.553 30.4288 107.179 29.5085 111.339 29.5085C114.136 29.5085 116.741 29.9594 119.152 30.8613C121.582 31.7448 123.698 33.0792 125.502 34.8646C127.324 36.6499 128.741 38.8954 129.754 41.6011C130.766 44.2883 131.272 47.4357 131.272 51.0432V54.2734H95.4638V46.9848H120.201C120.201 45.2914 119.833 43.7914 119.097 42.4846C118.361 41.1777 117.339 40.1562 116.032 39.42C114.744 38.6654 113.244 38.288 111.532 38.288C109.747 38.288 108.164 38.7022 106.783 39.5304C105.421 40.3403 104.354 41.4354 103.581 42.8159C102.808 44.1779 102.412 45.6964 102.394 47.3713V54.3011C102.394 56.3993 102.78 58.2123 103.553 59.74C104.345 61.2676 105.458 62.4456 106.894 63.2739C108.329 64.1021 110.032 64.5163 112.001 64.5163C113.308 64.5163 114.505 64.3322 115.59 63.9641C116.676 63.596 117.606 63.0438 118.379 62.3076C119.152 61.5713 119.741 60.6694 120.146 59.6019L131.024 60.3197C130.472 62.9334 129.34 65.2157 127.628 67.1667C125.935 69.0993 123.744 70.6086 121.057 71.6945C118.388 72.762 115.305 73.2958 111.808 73.2958Z" fill="white"/>
<path d="M150.709 15.925V72.4675H138.947V15.925H150.709Z" fill="white"/>
<path d="M179.456 73.2958C175.094 73.2958 171.339 72.4123 168.192 70.6454C165.063 68.86 162.652 66.3384 160.958 63.0806C159.265 59.8044 158.418 55.93 158.418 51.4574C158.418 47.0952 159.265 43.2668 160.958 39.9722C162.652 36.6775 165.035 34.1099 168.109 32.2694C171.201 30.4288 174.827 29.5085 178.987 29.5085C181.784 29.5085 184.389 29.9594 186.8 30.8613C189.23 31.7448 191.346 33.0792 193.15 34.8646C194.972 36.6499 196.389 38.8954 197.402 41.6011C198.414 44.2883 198.92 47.4357 198.92 51.0432V54.2734H163.112V46.9848H187.849C187.849 45.2914 187.481 43.7914 186.745 42.4846C186.009 41.1777 184.987 40.1562 183.68 39.42C182.392 38.6654 180.892 38.288 179.18 38.288C177.395 38.288 175.812 38.7022 174.431 39.5304C173.069 40.3403 172.002 41.4354 171.229 42.8159C170.456 44.1779 170.06 45.6964 170.042 47.3713V54.3011C170.042 56.3993 170.428 58.2123 171.201 59.74C171.993 61.2676 173.106 62.4456 174.542 63.2739C175.977 64.1021 177.68 64.5163 179.649 64.5163C180.956 64.5163 182.153 64.3322 183.239 63.9641C184.324 63.596 185.254 63.0438 186.027 62.3076C186.8 61.5713 187.389 60.6694 187.794 59.6019L198.672 60.3197C198.12 62.9334 196.988 65.2157 195.276 67.1667C193.583 69.0993 191.392 70.6086 188.705 71.6945C186.036 72.762 182.953 73.2958 179.456 73.2958Z" fill="white"/>
<path d="M225.756 73.2958C221.467 73.2958 217.759 72.3847 214.63 70.5625C211.519 68.722 209.117 66.1636 207.424 62.8873C205.73 59.5927 204.884 55.7735 204.884 51.4298C204.884 47.0492 205.73 43.2208 207.424 39.9446C209.117 36.6499 211.519 34.0915 214.63 32.2694C217.759 30.4288 221.467 29.5085 225.756 29.5085C230.044 29.5085 233.744 30.4288 236.855 32.2694C239.983 34.0915 242.395 36.6499 244.088 39.9446C245.781 43.2208 246.628 47.0492 246.628 51.4298C246.628 55.7735 245.781 59.5927 244.088 62.8873C242.395 66.1636 239.983 68.722 236.855 70.5625C233.744 72.3847 230.044 73.2958 225.756 73.2958ZM225.811 64.185C227.762 64.185 229.391 63.6328 230.698 62.5284C232.005 61.4057 232.989 59.878 233.652 57.9454C234.333 56.0128 234.673 53.8133 234.673 51.3469C234.673 48.8806 234.333 46.6811 233.652 44.7485C232.989 42.8159 232.005 41.2882 230.698 40.1654C229.391 39.0427 227.762 38.4813 225.811 38.4813C223.842 38.4813 222.185 39.0427 220.841 40.1654C219.516 41.2882 218.513 42.8159 217.832 44.7485C217.17 46.6811 216.838 48.8806 216.838 51.3469C216.838 53.8133 217.17 56.0128 217.832 57.9454C218.513 59.878 219.516 61.4057 220.841 62.5284C222.185 63.6328 223.842 64.185 225.811 64.185Z" fill="white"/>
</svg>
