<svg width="64" height="64" viewBox="0 0 64 64" fill="none" xmlns="http://www.w3.org/2000/svg">
<circle opacity="0.1" cx="32" cy="32" r="32" fill="#64748B"/>
<path d="M28.0727 30.3688C28.1476 30.3691 28.221 30.3472 28.2836 30.306C28.3461 30.2647 28.3951 30.2058 28.4242 30.1367C28.5795 29.4491 28.9458 28.8271 29.4719 28.3578C29.5563 28.3016 29.5914 28.182 29.5914 28.0695C29.5875 28.0218 29.572 27.9757 29.5462 27.9353C29.5205 27.8949 29.4853 27.8613 29.4438 27.8375L21.2313 23.0352L26.4766 19.9766C26.5803 19.9176 26.6671 19.8329 26.7286 19.7307C26.7902 19.6285 26.8245 19.5122 26.8281 19.393C26.8305 19.2725 26.7987 19.1537 26.7365 19.0505C26.6743 18.9472 26.5842 18.8637 26.4766 18.8094L24.9016 17.9094C24.7996 17.8521 24.6846 17.822 24.5676 17.822C24.4506 17.822 24.3356 17.8521 24.2336 17.9094L17.1883 21.9875C17.0846 22.0465 16.9978 22.1312 16.9362 22.2333C16.8747 22.3355 16.8404 22.4518 16.8367 22.5711V30.6641C16.8344 30.7846 16.8662 30.9033 16.9284 31.0065C16.9906 31.1098 17.0807 31.1934 17.1883 31.2477L18.7563 32.1477C18.8624 32.2102 18.9848 32.2395 19.1078 32.232C19.2795 32.2359 19.4459 32.1729 19.5719 32.0563C19.6971 31.9222 19.7695 31.7474 19.7758 31.5641V25.5664L27.932 30.3406C27.9761 30.3606 28.0243 30.3703 28.0727 30.3688ZM38.732 40.557C38.6103 40.5605 38.4906 40.5892 38.3805 40.6414L33.1422 43.6719V34.243C33.1422 34.0391 32.9383 33.8352 32.7063 33.9195C32.0424 34.1183 31.3363 34.1281 30.6672 33.9477C30.6168 33.9338 30.5638 33.9315 30.5124 33.9411C30.461 33.9508 30.4124 33.9719 30.3704 34.0031C30.3284 34.0343 30.294 34.0746 30.2699 34.1211C30.2458 34.1675 30.2326 34.2188 30.2313 34.2711V43.6438L24.993 40.6133C24.8868 40.5508 24.7644 40.5214 24.6414 40.5289C24.4648 40.5307 24.296 40.6017 24.1711 40.7266C24.0462 40.8514 23.9753 41.0203 23.9734 41.1969V43.032C23.9711 43.1525 24.0029 43.2713 24.0651 43.3745C24.1273 43.4778 24.2174 43.5613 24.325 43.6156L31.3703 47.6656C31.4745 47.7268 31.5942 47.7561 31.7149 47.75C31.8371 47.75 31.9575 47.7211 32.0664 47.6656L39.1117 43.6156C39.2154 43.5566 39.3022 43.472 39.3638 43.3698C39.4254 43.2676 39.4596 43.1513 39.4633 43.032V41.1969C39.4 40.8805 39.0766 40.557 38.732 40.557ZM36.1094 19.4844C36.4292 19.4844 36.7419 19.3895 37.0078 19.2118C37.2738 19.0341 37.4811 18.7816 37.6035 18.4861C37.7259 18.1906 37.7579 17.8654 37.6955 17.5517C37.6331 17.238 37.4791 16.9498 37.2529 16.7237C37.0267 16.4975 36.7386 16.3435 36.4249 16.2811C36.1112 16.2187 35.786 16.2507 35.4905 16.3731C35.195 16.4955 34.9424 16.7028 34.7647 16.9687C34.587 17.2347 34.4922 17.5473 34.4922 17.8672C34.4922 18.2961 34.6626 18.7074 34.9659 19.0107C35.2691 19.314 35.6805 19.4844 36.1094 19.4844ZM40.5813 18.7742C40.2614 18.7742 39.9487 18.8691 39.6828 19.0468C39.4169 19.2245 39.2096 19.477 39.0872 19.7725C38.9648 20.068 38.9327 20.3932 38.9951 20.7069C39.0575 21.0206 39.2116 21.3088 39.4377 21.5349C39.6639 21.7611 39.9521 21.9151 40.2658 21.9775C40.5795 22.0399 40.9046 22.0079 41.2001 21.8855C41.4956 21.7631 41.7482 21.5558 41.9259 21.2899C42.1036 21.0239 42.1984 20.7113 42.1984 20.3914C42.1984 19.9625 42.0281 19.5512 41.7248 19.2479C41.4215 18.9446 41.0102 18.7742 40.5813 18.7742ZM45.025 24.6594C45.3449 24.6594 45.6575 24.5645 45.9235 24.3868C46.1894 24.2091 46.3967 23.9566 46.5191 23.6611C46.6415 23.3656 46.6735 23.0404 46.6111 22.7267C46.5487 22.413 46.3947 22.1248 46.1685 21.8987C45.9424 21.6725 45.6542 21.5185 45.3405 21.4561C45.0268 21.3937 44.7016 21.4257 44.4061 21.5481C44.1106 21.6705 43.8581 21.8778 43.6804 22.1437C43.5027 22.4097 43.4078 22.7223 43.4078 23.0422C43.4078 23.4711 43.5782 23.8824 43.8815 24.1857C44.1848 24.489 44.5961 24.6594 45.025 24.6594ZM40.5813 24.0125C40.2614 24.0125 39.9487 24.1073 39.6828 24.285C39.4169 24.4627 39.2096 24.7153 39.0872 25.0108C38.9648 25.3063 38.9327 25.6315 38.9951 25.9452C39.0575 26.2589 39.2116 26.547 39.4377 26.7732C39.6639 26.9994 39.9521 27.1534 40.2658 27.2158C40.5795 27.2782 40.9046 27.2462 41.2001 27.1238C41.4956 27.0014 41.7482 26.7941 41.9259 26.5281C42.1036 26.2622 42.1984 25.9495 42.1984 25.6297C42.1984 25.2008 42.0281 24.7894 41.7248 24.4862C41.4215 24.1829 41.0102 24.0125 40.5813 24.0125ZM36.1094 29.8625C36.4292 29.8625 36.7419 29.7677 37.0078 29.59C37.2738 29.4123 37.4811 29.1597 37.6035 28.8642C37.7259 28.5687 37.7579 28.2435 37.6955 27.9298C37.6331 27.6161 37.4791 27.328 37.2529 27.1018C37.0267 26.8756 36.7386 26.7216 36.4249 26.6592C36.1112 26.5968 35.786 26.6288 35.4905 26.7512C35.195 26.8736 34.9424 27.0809 34.7647 27.3469C34.587 27.6128 34.4922 27.9255 34.4922 28.2453C34.4922 28.6742 34.6626 29.0856 34.9659 29.3888C35.2691 29.6921 35.6805 29.8625 36.1094 29.8625ZM31.743 32.4219C32.0628 32.4219 32.3755 32.327 32.6414 32.1493C32.9074 31.9716 33.1147 31.7191 33.2371 31.4236C33.3595 31.1281 33.3915 30.8029 33.3291 30.4892C33.2667 30.1755 33.1127 29.8873 32.8865 29.6612C32.6603 29.435 32.3722 29.281 32.0585 29.2186C31.7448 29.1562 31.4196 29.1882 31.1241 29.3106C30.8286 29.433 30.576 29.6403 30.3983 29.9062C30.2206 30.1722 30.1258 30.4848 30.1258 30.8047C30.1258 31.2336 30.2962 31.6449 30.5995 31.9482C30.9027 32.2515 31.3141 32.4219 31.743 32.4219ZM45.025 26.6281C44.7052 26.6281 44.3925 26.723 44.1265 26.9007C43.8606 27.0784 43.6533 27.3309 43.5309 27.6264C43.4085 27.9219 43.3765 28.2471 43.4389 28.5608C43.5013 28.8745 43.6553 29.1627 43.8815 29.3888C44.1077 29.615 44.3958 29.769 44.7095 29.8314C45.0232 29.8938 45.3484 29.8618 45.6439 29.7394C45.9394 29.617 46.192 29.4097 46.3696 29.1438C46.5473 28.8778 46.6422 28.5652 46.6422 28.2453C46.6422 27.8164 46.4718 27.4051 46.1685 27.1018C45.8653 26.7985 45.4539 26.6281 45.025 26.6281ZM45.025 31.7117C44.7052 31.7117 44.3925 31.8066 44.1265 31.9843C43.8606 32.162 43.6533 32.4145 43.5309 32.71C43.4085 33.0055 43.3765 33.3307 43.4389 33.6444C43.5013 33.9581 43.6553 34.2463 43.8815 34.4724C44.1077 34.6986 44.3958 34.8526 44.7095 34.915C45.0232 34.9774 45.3484 34.9454 45.6439 34.823C45.9394 34.7006 46.192 34.4933 46.3696 34.2274C46.5473 33.9614 46.6422 33.6488 46.6422 33.3289C46.6422 32.9 46.4718 32.4887 46.1685 32.1854C45.8653 31.8821 45.4539 31.7117 45.025 31.7117Z" fill="#1E40AE"/>
</svg>
