<svg width="46" height="32" viewBox="0 0 46 32" fill="none" xmlns="http://www.w3.org/2000/svg">
<path d="M2.51188 0H43.4881C44.8732 0.00748698 46 1.14176 46 2.52686V29.4725C46 30.8613 44.862 31.9994 43.4732 31.9994H2.51188C1.13053 31.9919 0 30.8576 0 29.4725V2.52686C0 1.14176 1.12679 0.00748698 2.51188 0Z" fill="#FF9933"/>
<path d="M0 10.6653H46V21.3343H0V10.6653Z" fill="white"/>
<path d="M0 21.334H46V29.4724C46 30.8612 44.862 31.9993 43.4732 31.9993H2.51188C1.13053 31.9918 0 30.8575 0 29.4724V21.334Z" fill="#128807"/>
<path d="M27.2676 15.9998C27.2676 13.6414 25.3584 11.7322 23 11.7322C20.6416 11.7322 18.7324 13.6414 18.7324 15.9998C18.7324 18.3544 20.6416 20.2673 23 20.2673C25.3584 20.2673 27.2676 18.3582 27.2676 15.9998Z" fill="#000088"/>
<path d="M26.7323 15.9996C26.7323 13.9369 25.0627 12.2673 23 12.2673C20.9373 12.2673 19.2677 13.9369 19.2677 15.9996C19.2677 18.0623 20.9373 19.7319 23 19.7319C25.0627 19.7319 26.7323 18.0623 26.7323 15.9996Z" fill="white"/>
<path d="M23.745 15.9996C23.745 15.5878 23.4118 15.2509 23 15.2509C22.5882 15.2509 22.2551 15.5841 22.2551 15.9996C22.2551 16.4114 22.5882 16.7446 23 16.7446C23.4118 16.7446 23.745 16.4114 23.745 15.9996Z" fill="#000088"/>
<path d="M26.8858 16.5125C26.9008 16.4114 26.8259 16.3178 26.7248 16.3029C26.6237 16.2879 26.5302 16.3628 26.5152 16.4638C26.5002 16.5649 26.5751 16.6585 26.6761 16.6735C26.781 16.6847 26.8746 16.6136 26.8858 16.5125Z" fill="#000088"/>
<path d="M23 19.7319L23.1273 17.4933L23 16.4264L22.8727 17.4933L23 19.7319Z" fill="#000088"/>
<path d="M26.62 17.5009C26.6612 17.4073 26.6125 17.295 26.5189 17.2576C26.4253 17.2164 26.313 17.2651 26.2756 17.3586C26.2344 17.4522 26.2831 17.5645 26.3767 17.602C26.474 17.6394 26.5825 17.5945 26.62 17.5009Z" fill="black"/>
<path d="M22.0342 19.6047L22.7379 17.4747L22.8914 16.4115L22.4909 17.411L22.0342 19.6047Z" fill="black"/>
<path d="M26.1108 18.388C26.1745 18.3057 26.1595 18.1896 26.0771 18.126C25.9948 18.0623 25.8787 18.0773 25.8151 18.1597C25.7514 18.242 25.7664 18.3581 25.8488 18.4217C25.9311 18.4853 26.0472 18.4666 26.1108 18.388Z" fill="black"/>
<path d="M21.132 19.2341L22.3636 17.3586L22.7866 16.3703L22.1428 17.2275L21.132 19.2341Z" fill="black"/>
<path d="M25.3846 19.1104C25.467 19.0468 25.482 18.9307 25.4183 18.8484C25.3547 18.766 25.2386 18.751 25.1563 18.8147C25.0739 18.8783 25.059 18.9944 25.1226 19.0767C25.1862 19.1553 25.306 19.1741 25.3846 19.1104Z" fill="black"/>
<path d="M20.3609 18.6388L22.0342 17.1452L22.6968 16.3029L21.8545 16.9655L20.3609 18.6388Z" fill="black"/>
<path d="M24.5011 19.6234C24.5947 19.5822 24.6434 19.4737 24.6022 19.3801C24.561 19.2865 24.4525 19.2378 24.3589 19.279C24.2653 19.3164 24.2166 19.4288 24.2578 19.5223C24.2952 19.6159 24.4038 19.6608 24.5011 19.6234Z" fill="black"/>
<path d="M19.7657 17.8677L21.7722 16.8569L22.6294 16.2131L21.6411 16.6361L19.7657 17.8677Z" fill="black"/>
<path d="M23.5129 19.8855C23.614 19.8706 23.6851 19.777 23.6739 19.6759C23.6589 19.5748 23.5653 19.5037 23.4642 19.5149C23.3631 19.5299 23.292 19.6235 23.3033 19.7246C23.3145 19.8294 23.4081 19.9005 23.5129 19.8855Z" fill="black"/>
<path d="M19.395 16.9655L21.5924 16.5088L22.5882 16.112L21.525 16.2617L19.395 16.9655Z" fill="black"/>
<path d="M22.4871 19.8853C22.5882 19.9003 22.6818 19.8254 22.6968 19.7243C22.7117 19.6233 22.6369 19.5297 22.5358 19.5147C22.4347 19.4997 22.3411 19.5746 22.3262 19.6757C22.3149 19.7805 22.3861 19.8741 22.4871 19.8853Z" fill="black"/>
<path d="M19.2677 15.9998L21.5064 16.127L22.5732 15.9998L21.5064 15.8725L19.2677 15.9998Z" fill="black"/>
<path d="M21.4988 19.6234C21.5924 19.6646 21.7047 19.6159 21.7422 19.5223C21.7796 19.4288 21.7347 19.3164 21.6411 19.279C21.5475 19.2378 21.4352 19.2865 21.3978 19.3801C21.3603 19.4737 21.4053 19.5822 21.4988 19.6234Z" fill="black"/>
<path d="M19.395 15.0339L21.525 15.7377L22.5882 15.8911L21.5924 15.4906L19.395 15.0339Z" fill="black"/>
<path d="M20.6117 19.1104C20.694 19.1741 20.8101 19.1591 20.8737 19.0767C20.9373 18.9944 20.9224 18.8783 20.84 18.8147C20.7577 18.751 20.6416 18.766 20.578 18.8484C20.5181 18.9307 20.533 19.0468 20.6117 19.1104Z" fill="black"/>
<path d="M19.7657 14.1318L21.6411 15.3634L22.6294 15.7864L21.7722 15.1425L19.7657 14.1318Z" fill="black"/>
<path d="M19.8892 18.388C19.9528 18.4704 20.0688 18.4853 20.1512 18.4217C20.2336 18.3581 20.2485 18.242 20.1849 18.1597C20.1212 18.0773 20.0052 18.0623 19.9228 18.126C19.8442 18.1859 19.8255 18.3057 19.8892 18.388Z" fill="black"/>
<path d="M20.3609 13.3606L21.8545 15.0339L22.6968 15.7003L22.0342 14.8542L20.3609 13.3606Z" fill="black"/>
<path d="M19.3763 17.5009C19.4175 17.5945 19.5261 17.6431 19.6197 17.602C19.7132 17.5608 19.7619 17.4522 19.7207 17.3586C19.6796 17.2651 19.571 17.2164 19.4774 17.2576C19.3838 17.295 19.3389 17.4036 19.3763 17.5009Z" fill="black"/>
<path d="M21.132 12.7654L22.1428 14.7719L22.7866 15.6291L22.3636 14.6446L21.132 12.7654Z" fill="black"/>
<path d="M19.1143 16.5125C19.1293 16.6136 19.2228 16.6847 19.3239 16.6734C19.425 16.6585 19.4961 16.5649 19.4849 16.4638C19.4699 16.3627 19.3763 16.2916 19.2752 16.3028C19.1704 16.3141 19.0993 16.4077 19.1143 16.5125Z" fill="black"/>
<path d="M22.0342 12.3948L22.4909 14.5922L22.8914 15.588L22.7379 14.5248L22.0342 12.3948Z" fill="black"/>
<path d="M19.1143 15.4868C19.0993 15.5879 19.1742 15.6814 19.2752 15.6964C19.3763 15.7114 19.4699 15.6365 19.4849 15.5354C19.4998 15.4344 19.425 15.3408 19.3239 15.3258C19.2191 15.3146 19.1255 15.3857 19.1143 15.4868Z" fill="black"/>
<path d="M23 12.2673L22.8727 14.5059L23 15.5728L23.1273 14.5059L23 12.2673Z" fill="black"/>
<path d="M19.38 14.4985C19.3388 14.5921 19.3875 14.7044 19.4811 14.7418C19.5747 14.7793 19.687 14.7343 19.7244 14.6408C19.7656 14.5472 19.7169 14.4349 19.6234 14.3974C19.526 14.36 19.4175 14.4049 19.38 14.4985Z" fill="black"/>
<path d="M23.9658 12.3948L23.262 14.5248L23.1085 15.588L23.5091 14.5922L23.9658 12.3948Z" fill="black"/>
<path d="M19.8892 13.6151C19.8255 13.6974 19.8405 13.8135 19.9229 13.8771C20.0052 13.9408 20.1213 13.9258 20.1849 13.8434C20.2486 13.7611 20.2336 13.645 20.1512 13.5814C20.0689 13.5177 19.9528 13.5327 19.8892 13.6151Z" fill="black"/>
<path d="M24.868 12.7654L23.6364 14.6446L23.2134 15.6291L23.8573 14.7719L24.868 12.7654Z" fill="black"/>
<path d="M20.6154 12.8889C20.5331 12.9525 20.5181 13.0686 20.5817 13.1509C20.6454 13.2333 20.7614 13.2483 20.8438 13.1846C20.9261 13.121 20.9411 13.0049 20.8775 12.9226C20.8138 12.8402 20.694 12.829 20.6154 12.8889Z" fill="black"/>
<path d="M25.6392 13.3606L23.9658 14.8542L23.3032 15.7003L24.1455 15.0339L25.6392 13.3606Z" fill="black"/>
<path d="M21.4988 12.3798C21.4053 12.4209 21.3603 12.5295 21.3978 12.6231C21.439 12.7167 21.5475 12.7653 21.6411 12.7242C21.7347 12.683 21.7834 12.5744 21.7422 12.4808C21.7047 12.3835 21.5962 12.3386 21.4988 12.3798Z" fill="black"/>
<path d="M26.2344 14.1318L24.2279 15.1425L23.3706 15.7864L24.3589 15.3634L26.2344 14.1318Z" fill="black"/>
<path d="M22.4871 12.114C22.3861 12.1289 22.3149 12.2225 22.3262 12.3236C22.3411 12.4247 22.4347 12.4958 22.5358 12.4846C22.6369 12.4696 22.7117 12.376 22.6968 12.2749C22.6855 12.1739 22.5919 12.099 22.4871 12.114Z" fill="black"/>
<path d="M26.605 15.0339L24.4075 15.4906L23.4118 15.8911L24.4749 15.7377L26.605 15.0339Z" fill="black"/>
<path d="M23.5128 12.114C23.4118 12.099 23.3182 12.1739 23.3032 12.2749C23.2882 12.376 23.3631 12.4696 23.4642 12.4846C23.5652 12.4996 23.6588 12.4247 23.6738 12.3236C23.685 12.2225 23.6139 12.1252 23.5128 12.114Z" fill="black"/>
<path d="M26.7323 15.9998L24.4937 15.8725L23.4268 15.9998L24.4937 16.127L26.7323 15.9998Z" fill="black"/>
<path d="M24.5011 12.3797C24.4075 12.3386 24.2952 12.3872 24.2578 12.4808C24.2166 12.5744 24.2653 12.6867 24.3589 12.7241C24.4525 12.7616 24.5648 12.7167 24.6022 12.6231C24.6396 12.5257 24.5947 12.4172 24.5011 12.3797Z" fill="black"/>
<path d="M26.605 16.9655L24.4749 16.2617L23.4118 16.112L24.4075 16.5088L26.605 16.9655Z" fill="black"/>
<path d="M25.3846 12.8888C25.3023 12.8251 25.1862 12.8401 25.1226 12.9225C25.059 13.0048 25.0739 13.1209 25.1563 13.1845C25.2386 13.2481 25.3547 13.2332 25.4183 13.1508C25.482 13.0685 25.467 12.9524 25.3846 12.8888Z" fill="black"/>
<path d="M26.2344 17.8677L24.3589 16.6361L23.3706 16.2131L24.2279 16.8569L26.2344 17.8677Z" fill="black"/>
<path d="M26.1108 13.6151C26.0472 13.5327 25.9311 13.5177 25.8488 13.5814C25.7664 13.645 25.7514 13.7611 25.8151 13.8434C25.8787 13.9258 25.9948 13.9408 26.0771 13.8771C26.1557 13.8135 26.1745 13.6937 26.1108 13.6151Z" fill="black"/>
<path d="M25.6392 18.6388L24.1455 16.9655L23.3032 16.3029L23.9658 17.1452L25.6392 18.6388Z" fill="black"/>
<path d="M26.6237 14.4986C26.5825 14.405 26.474 14.3563 26.3804 14.3975C26.2868 14.4387 26.2381 14.5473 26.2793 14.6408C26.3205 14.7344 26.429 14.7794 26.5226 14.7419C26.6162 14.7045 26.6611 14.5959 26.6237 14.4986Z" fill="black"/>
<path d="M24.868 19.2341L23.8573 17.2275L23.2134 16.3703L23.6364 17.3586L24.868 19.2341Z" fill="black"/>
<path d="M26.8858 15.4868C26.8708 15.3857 26.7772 15.3146 26.6761 15.3258C26.5751 15.3408 26.5039 15.4344 26.5152 15.5354C26.5301 15.6365 26.6237 15.7076 26.7248 15.6964C26.8296 15.6852 26.9007 15.5916 26.8858 15.4868Z" fill="black"/>
<path d="M23.9658 19.6047L23.5091 17.411L23.1085 16.4115L23.262 17.4747L23.9658 19.6047Z" fill="black"/>
</svg>
