<svg width="64" height="64" viewBox="0 0 64 64" fill="none" xmlns="http://www.w3.org/2000/svg">
<circle opacity="0.1" cx="32" cy="32" r="32" fill="#64748B"/>
<g clip-path="url(#clip0_0_408)">
<path d="M36.725 14.6258C35.2203 14.218 33.6383 14 32 14C22.0578 14 14 22.0578 14 32C14 41.9422 22.0578 50 32 50C41.9422 50 50 41.9422 50 32C50 30.3617 49.782 28.7797 49.3742 27.275L47.4969 29.1523C47.6656 30.0734 47.75 31.0297 47.75 32C47.75 40.6977 40.6977 47.75 32 47.75C23.3023 47.75 16.25 40.6977 16.25 32C16.25 23.3023 23.3023 16.25 32 16.25C32.9703 16.25 33.9195 16.3414 34.8477 16.5031L36.725 14.6258ZM33.2094 20.8133C32.8156 20.7711 32.4078 20.75 32 20.75C25.7844 20.75 20.75 25.7844 20.75 32C20.75 38.2156 25.7844 43.25 32 43.25C38.2156 43.25 43.25 38.2156 43.25 32C43.25 31.5922 43.2289 31.1914 43.1867 30.7906L40.8945 30.6148C40.9648 31.0648 41 31.5289 41 32C41 36.9711 36.9711 41 32 41C27.0289 41 23 36.9711 23 32C23 27.0289 27.0289 23 32 23C32.4711 23 32.9352 23.0352 33.3852 23.1055L33.2094 20.8133ZM44.7406 19.2875L44.7125 19.2594L44.7195 19.2805L44.7406 19.2875ZM40.8031 21.6078L37.9977 24.4133L37.6602 20.0539L39.4602 18.2539L40.8031 21.6078ZM37.4914 28.1047L44.2906 28.625L44.8039 28.6672L45.1695 28.3016L48.5445 24.9266L49.7539 23.7172L48.1719 23.0844L42.9898 21.0102L40.9227 15.8352L40.2898 14.2531L39.0805 15.4555L35.7055 18.8305L35.3398 19.1961L35.382 19.7094L35.9023 26.5086L31.2055 31.2055L30.4109 32L32 33.5891L32.7945 32.7945L37.4914 28.0977V28.1047ZM39.5867 26.0094L42.3922 23.2039L45.7461 24.5469L43.9461 26.3469L39.5867 26.0094Z" fill="#1E40AF"/>
</g>
<defs>
<clipPath id="clip0_0_408">
<rect width="36" height="36" fill="white" transform="translate(14 14)"/>
</clipPath>
</defs>
</svg>
