<svg width="64" height="64" viewBox="0 0 64 64" fill="none" xmlns="http://www.w3.org/2000/svg">
<circle opacity="0.1" cx="32" cy="32" r="32" fill="#64748B"/>
<g clip-path="url(#clip0_0_420)">
<path d="M28.0625 36.5C30.8609 36.5 33.125 34.2359 33.125 31.4375V30.875H40.4375C41.3726 30.875 42.125 31.6273 42.125 32.5625C42.125 33.3851 41.5343 34.0742 40.7609 34.2218C40.2195 34.3273 39.7625 34.6859 39.5375 35.1921C39.3125 35.6984 39.3476 36.282 39.6359 36.7531C39.7906 37.0062 39.875 37.3015 39.875 37.625C39.875 38.5601 39.1226 39.3125 38.1875 39.3125C37.2523 39.3125 36.5 40.0648 36.5 41C36.5 41.6187 35.9937 42.125 35.375 42.125H34.25H32H27.3101C26.2625 42.125 25.264 42.5398 24.5258 43.2781L20.6797 47.1171C20.0187 47.7781 20.0187 48.8468 20.6797 49.5007C21.3406 50.1546 22.4094 50.1617 23.0633 49.5007L26.9023 45.6617C27.0078 45.5562 27.1484 45.5 27.3031 45.5H31.9929H34.2429H35.3679C37.3367 45.5 39.0101 44.2414 39.6218 42.4835C41.7172 41.8648 43.2429 39.9242 43.2429 37.625C43.2429 37.3507 43.2218 37.0765 43.1797 36.8164C44.5789 35.9164 45.5 34.3484 45.5 32.5625C45.5 29.764 43.2359 27.5 40.4375 27.5H33.125V25.8125C33.125 24.8773 32.3726 24.125 31.4375 24.125C30.5023 24.125 29.75 24.8773 29.75 25.8125V31.4375C29.75 32.3726 28.9976 33.125 28.0625 33.125C27.1273 33.125 26.375 32.3726 26.375 31.4375V24.6875C26.375 23.1335 27.6336 21.875 29.1875 21.875H38.9398C39.9875 21.875 40.9859 21.4601 41.7242 20.7218L45.5703 16.8828C46.2312 16.2218 46.2312 15.1531 45.5703 14.4992C44.9093 13.8453 43.8406 13.8382 43.1867 14.4992L39.3406 18.3382C39.2351 18.4437 39.0945 18.5 38.9398 18.5H29.1875C25.7703 18.5 23 21.2703 23 24.6875V31.4375C23 34.2359 25.264 36.5 28.0625 36.5ZM20.75 23.3164C19.414 23.8437 18.3664 24.9757 17.9797 26.4242L16.4609 32.1054C16.4328 32.2039 16.3836 32.2882 16.3133 32.3585L9.99216 38.6796C9.33123 39.3406 9.33123 40.4093 9.99216 41.0632C10.6531 41.7171 11.7219 41.7242 12.3758 41.0632L18.7039 34.7421C19.1961 34.25 19.5476 33.6453 19.7234 32.9703L20.75 29.1242V23.3164ZM47.6937 31.6343L54.0078 25.3203C54.6687 24.6593 54.6687 23.5906 54.0078 22.9367C53.3468 22.2828 52.2781 22.2757 51.6242 22.9367L46.3297 28.2312C47.0539 29.2085 47.532 30.3757 47.6937 31.6414V31.6343Z" fill="#1E40AF"/>
</g>
<defs>
<clipPath id="clip0_0_420">
<rect width="45" height="36" fill="white" transform="translate(9.5 14)"/>
</clipPath>
</defs>
</svg>
