<svg width="64" height="64" viewBox="0 0 64 64" fill="none" xmlns="http://www.w3.org/2000/svg">
<circle opacity="0.1" cx="32" cy="32" r="32" fill="#64748B"/>
<g clip-path="url(#clip0_0_573)">
<path d="M17.375 19.625H46.625V36.5H50V19.625V16.25H46.625H17.375H14V19.625V36.5H17.375V19.625ZM13.1492 42.125H50.8508L48.6008 44.375H15.3992L13.1492 42.125ZM54.5 43.25V42.125V38.75H51.125H12.875H9.5V42.125V43.25L14 47.75H50L54.5 43.25ZM29.2578 26.4453L30.4531 25.25L28.0625 22.8664L26.8672 24.0617L23.4922 27.4367L22.2969 28.632L23.4922 29.8273L26.8672 33.2023L28.0625 34.3977L30.4461 32L29.2508 30.8047L27.0711 28.625L29.2508 26.4453H29.2578ZM37.1328 24.0547L35.9375 22.8594L33.5539 25.25L34.7492 26.4453L36.9289 28.625L34.7492 30.8047L33.5539 32L35.9375 34.3836L37.1328 33.1883L40.5078 29.8133L41.7031 28.618L40.5078 27.4227L37.1328 24.0477V24.0547Z" fill="#1E40AF"/>
</g>
<defs>
<clipPath id="clip0_0_573">
<rect width="45" height="36" fill="white" transform="translate(9.5 14)"/>
</clipPath>
</defs>
</svg>
