<svg width="32" height="32" viewBox="0 0 32 32" fill="none" xmlns="http://www.w3.org/2000/svg">
<g clip-path="url(#clip0_0_132)">
<path fill-rule="evenodd" clip-rule="evenodd" d="M24 32H8C5.8783 31.9999 3.84352 31.157 2.34325 29.6568C0.842977 28.1565 9.28184e-05 26.1217 0 24L0 8C9.28184e-05 5.8783 0.842977 3.84352 2.34325 2.34325C3.84352 0.842977 5.8783 9.28184e-05 8 0L24 0C26.1217 0 28.1566 0.842855 29.6569 2.34315C31.1571 3.84344 32 5.87827 32 8V24C32 26.1217 31.1571 28.1566 29.6569 29.6569C28.1566 31.1571 26.1217 32 24 32Z" fill="#2864B4"/>
<path fill-rule="evenodd" clip-rule="evenodd" d="M15 9H24C25.1536 8.99993 26.2632 8.55683 27.0995 7.7622C27.9359 6.96758 28.4351 5.88213 28.4941 4.73C28.5532 3.57788 28.1675 2.44708 27.4168 1.57113C26.666 0.695185 25.6076 0.140991 24.46 0.023C24.307 0.0145 24.1555 0 24 0H8C5.8783 9.28184e-05 3.84352 0.842977 2.34325 2.34325C0.842977 3.84352 9.28184e-05 5.8783 0 8L0 24C9.28219e-05 20.0218 1.58048 16.2065 4.3935 13.3935C7.20653 10.5805 11.0218 9.00009 15 9Z" fill="#417DCD"/>
<path fill-rule="evenodd" clip-rule="evenodd" d="M24 16C22.4178 16 20.871 16.4692 19.5554 17.3482C18.2399 18.2273 17.2145 19.4767 16.609 20.9385C16.0035 22.4003 15.845 24.0089 16.1537 25.5607C16.4624 27.1126 17.2243 28.538 18.3431 29.6569C19.462 30.7757 20.8874 31.5376 22.4393 31.8463C23.9911 32.155 25.5997 31.9965 27.0615 31.391C28.5233 30.7855 29.7727 29.7602 30.6518 28.4446C31.5308 27.129 32 25.5823 32 24V8C32 10.1217 31.1572 12.1566 29.6569 13.6569C28.1566 15.1571 26.1217 16 24 16Z" fill="#0F4B9B"/>
<path d="M9 12.5H7C6.44772 12.5 6 12.9477 6 13.5V25C6 25.5523 6.44772 26 7 26H9C9.55228 26 10 25.5523 10 25V13.5C10 12.9477 9.55228 12.5 9 12.5Z" fill="white"/>
<path d="M8 10.5C9.38071 10.5 10.5 9.38071 10.5 8C10.5 6.61929 9.38071 5.5 8 5.5C6.61929 5.5 5.5 6.61929 5.5 8C5.5 9.38071 6.61929 10.5 8 10.5Z" fill="white"/>
<path fill-rule="evenodd" clip-rule="evenodd" d="M17 14.32C17.4032 13.6152 17.9855 13.0294 18.6879 12.622C19.3904 12.2146 20.188 12 21 12C23.5435 12 26 13.5 26 17.5V25C26 25.1313 25.9742 25.2614 25.924 25.3827C25.8737 25.5041 25.8001 25.6143 25.7072 25.7072C25.6143 25.8001 25.5041 25.8737 25.3827 25.924C25.2614 25.9742 25.1313 26 25 26H23C22.8687 26 22.7386 25.9742 22.6173 25.924C22.4959 25.8737 22.3857 25.8001 22.2928 25.7072C22.1999 25.6143 22.1263 25.5041 22.076 25.3827C22.0258 25.2614 22 25.1313 22 25V18C22 17.337 21.7366 16.7011 21.2678 16.2322C20.7989 15.7634 20.163 15.5 19.5 15.5C18.837 15.5 18.2011 15.7634 17.7322 16.2322C17.2634 16.7011 17 17.337 17 18V25C17 25.1313 16.9742 25.2614 16.924 25.3827C16.8737 25.5041 16.8001 25.6143 16.7072 25.7072C16.6143 25.8001 16.5041 25.8737 16.3827 25.924C16.2614 25.9742 16.1313 26 16 26H14C13.8687 26 13.7386 25.9742 13.6173 25.924C13.4959 25.8737 13.3857 25.8001 13.2928 25.7072C13.1999 25.6143 13.1263 25.5041 13.076 25.3827C13.0258 25.2614 13 25.1313 13 25V13.5C13 13.3687 13.0258 13.2386 13.076 13.1173C13.1263 12.9959 13.1999 12.8857 13.2928 12.7928C13.3857 12.6999 13.4959 12.6263 13.6173 12.576C13.7386 12.5258 13.8687 12.5 14 12.5H16C16.1313 12.5 16.2614 12.5258 16.3827 12.576C16.5041 12.6263 16.6143 12.6999 16.7072 12.7928C16.8001 12.8857 16.8737 12.9959 16.924 13.1173C16.9742 13.2386 17 13.3687 17 13.5V14.32Z" fill="white"/>
</g>
<defs>
<clipPath id="clip0_0_132">
<rect width="32" height="32" fill="white"/>
</clipPath>
</defs>
</svg>
