<svg width="18" height="24" viewBox="0 0 18 24" fill="none" xmlns="http://www.w3.org/2000/svg">
<g clip-path="url(#clip0_0_507)">
<path d="M15.75 9C15.75 5.27344 12.7266 2.25 9 2.25C5.27344 2.25 2.25 5.27344 2.25 9C2.25 9.58125 2.46094 10.4812 2.96719 11.6812C3.45937 12.8438 4.15781 14.1281 4.95938 15.4266C6.29531 17.5922 7.84219 19.6828 9 21.1734C10.1625 19.6828 11.7094 17.5922 13.0406 15.4266C13.8422 14.1281 14.5406 12.8438 15.0328 11.6812C15.5391 10.4812 15.75 9.58125 15.75 9ZM18 9C18 13.0969 12.5156 20.3906 10.1109 23.4C9.53438 24.1172 8.46562 24.1172 7.88906 23.4C5.48438 20.3906 0 13.0969 0 9C0 4.03125 4.03125 0 9 0C13.9688 0 18 4.03125 18 9ZM10.5 9C10.5 8.60218 10.342 8.22064 10.0607 7.93934C9.77936 7.65804 9.39782 7.5 9 7.5C8.60218 7.5 8.22064 7.65804 7.93934 7.93934C7.65804 8.22064 7.5 8.60218 7.5 9C7.5 9.39782 7.65804 9.77936 7.93934 10.0607C8.22064 10.342 8.60218 10.5 9 10.5C9.39782 10.5 9.77936 10.342 10.0607 10.0607C10.342 9.77936 10.5 9.39782 10.5 9ZM5.25 9C5.25 8.00544 5.64509 7.05161 6.34835 6.34835C7.05161 5.64509 8.00544 5.25 9 5.25C9.99456 5.25 10.9484 5.64509 11.6517 6.34835C12.3549 7.05161 12.75 8.00544 12.75 9C12.75 9.99456 12.3549 10.9484 11.6517 11.6517C10.9484 12.3549 9.99456 12.75 9 12.75C8.00544 12.75 7.05161 12.3549 6.34835 11.6517C5.64509 10.9484 5.25 9.99456 5.25 9Z" fill="white"/>
</g>
<defs>
<clipPath id="clip0_0_507">
<rect width="18" height="24" fill="white"/>
</clipPath>
</defs>
</svg>
