<svg width="64" height="64" viewBox="0 0 64 64" fill="none" xmlns="http://www.w3.org/2000/svg">
<circle opacity="0.1" cx="32" cy="32" r="32" fill="#64748B"/>
<path d="M33.8563 29.0188C34.1094 28.182 34.25 27.2961 34.25 26.375C34.25 21.4039 30.2211 17.375 25.25 17.375C20.2789 17.375 16.25 21.4039 16.25 26.375C16.25 28.2875 16.8406 30.0523 17.8531 31.5008C18.1133 31.8734 18.4227 32.2953 18.7531 32.7453C19.6602 33.9898 20.743 35.4805 21.5516 36.95C22.2828 38.2859 22.6555 39.6781 22.8383 40.993L19.4141 41C19.2594 40.1562 18.9992 39.3336 18.5844 38.5742C17.8883 37.3086 17.0234 36.1203 16.1586 34.932C15.793 34.4328 15.4273 33.9336 15.0758 33.4273C13.6906 31.4305 12.875 28.9977 12.875 26.375C12.875 19.5406 18.4156 14 25.25 14C32.0703 14 37.5969 19.5125 37.625 26.3258C36.3734 26.8672 35.6563 28.1258 35.6563 29.3703V29.4336C35.1148 29.1313 34.482 28.9836 33.8563 29.0188ZM29.0188 43.25C29.2648 43.8969 29.5602 44.5367 29.9188 45.1484C30.1227 45.5 30.3406 45.8445 30.5797 46.175C29.8273 48.3969 27.725 50 25.25 50C22.1422 50 19.625 47.4828 19.625 44.375V43.25H29.0188ZM21.875 26.375C21.875 26.9937 21.3688 27.5 20.75 27.5C20.1313 27.5 19.625 26.9937 19.625 26.375C19.625 23.2672 22.1422 20.75 25.25 20.75C25.8688 20.75 26.375 21.2562 26.375 21.875C26.375 22.4937 25.8688 23 25.25 23C23.3867 23 21.875 24.5117 21.875 26.375ZM37.9063 29.3422C37.9063 28.85 38.2227 28.407 38.7008 28.3016C39.4391 28.1328 40.2125 28.0414 41 28.0414C41.7875 28.0414 42.5609 28.1328 43.2992 28.3016C43.7773 28.407 44.0938 28.85 44.0938 29.3422V30.5867C44.0938 31.1352 44.4313 31.6273 44.9094 31.9016C45.3875 32.1758 45.9711 32.218 46.4422 31.9438L47.4125 31.3883C47.8414 31.1422 48.3758 31.1984 48.7133 31.557C49.2477 32.1266 49.7188 32.7664 50.1266 33.4695C50.5344 34.1727 50.8508 34.9039 51.0758 35.6492C51.2234 36.1203 50.9984 36.6125 50.5695 36.8586L49.557 37.4422C49.1 37.7023 48.8539 38.2086 48.8539 38.7359C48.8539 39.2633 49.1 39.7695 49.557 40.0297L50.5695 40.6133C50.9984 40.8594 51.2164 41.3516 51.0758 41.8227C50.8438 42.568 50.5273 43.2992 50.1266 44.0023C49.7258 44.7055 49.2477 45.3453 48.7133 45.9148C48.3758 46.2734 47.8344 46.3297 47.4125 46.0836L46.4422 45.5281C45.9711 45.2539 45.3805 45.2961 44.9094 45.5703C44.4313 45.8445 44.0938 46.3367 44.0938 46.8852V48.1297C44.0938 48.6219 43.7773 49.0648 43.2992 49.1703C42.5609 49.3391 41.7875 49.4305 41 49.4305C40.2125 49.4305 39.4391 49.3391 38.7008 49.1703C38.2227 49.0648 37.9063 48.6219 37.9063 48.1297V46.9062C37.9063 46.3508 37.5617 45.8586 37.0836 45.5773C36.6055 45.3031 36.0148 45.2609 35.5367 45.5352L34.5875 46.0836C34.1586 46.3297 33.6242 46.2734 33.2867 45.9148C32.7523 45.3453 32.2813 44.7055 31.8734 44.0023C31.4656 43.2992 31.1492 42.568 30.9242 41.8227C30.7766 41.3516 31.0016 40.8594 31.4305 40.6133L32.4148 40.0437C32.8719 39.7766 33.125 39.2633 33.125 38.7359C33.125 38.2086 32.8789 37.6953 32.4148 37.4281L31.4305 36.8586C31.0016 36.6125 30.7836 36.1203 30.9242 35.6492C31.1563 34.9039 31.4656 34.1727 31.8734 33.4695C32.2813 32.7664 32.7523 32.1266 33.2867 31.557C33.6242 31.1984 34.1586 31.1422 34.5875 31.3883L35.5438 31.9367C36.0219 32.2109 36.6125 32.1688 37.0906 31.8945C37.5758 31.6203 37.9133 31.1211 37.9133 30.5656V29.3422H37.9063ZM44.382 38.7289C44.4029 38.2723 44.3309 37.8161 44.1705 37.3881C44.0101 36.96 43.7647 36.5689 43.4489 36.2384C43.1331 35.9079 42.7536 35.6448 42.3333 35.4651C41.913 35.2854 41.4606 35.1927 41.0035 35.1927C40.5464 35.1927 40.094 35.2854 39.6737 35.4651C39.2534 35.6448 38.8739 35.9079 38.5582 36.2384C38.2424 36.5689 37.9969 36.96 37.8365 37.3881C37.6761 37.8161 37.6042 38.2723 37.625 38.7289C37.6042 39.1855 37.6761 39.6417 37.8365 40.0697C37.9969 40.4978 38.2424 40.8889 38.5582 41.2194C38.8739 41.5499 39.2534 41.813 39.6737 41.9927C40.094 42.1724 40.5464 42.2651 41.0035 42.2651C41.4606 42.2651 41.913 42.1724 42.3333 41.9927C42.7536 41.813 43.1331 41.5499 43.4489 41.2194C43.7647 40.8889 44.0101 40.4978 44.1705 40.0697C44.3309 39.6417 44.4029 39.1855 44.382 38.7289Z" fill="#1E40AF"/>
</svg>
