<svg width="64" height="64" viewBox="0 0 64 64" fill="none" xmlns="http://www.w3.org/2000/svg">
<circle opacity="0.1" cx="32" cy="32" r="32" fill="#64748B"/>
<g clip-path="url(#clip0_0_305)">
<path d="M31.75 28.625C33.2418 28.625 34.6726 28.0324 35.7275 26.9775C36.7824 25.9226 37.375 24.4918 37.375 23C37.375 21.5082 36.7824 20.0774 35.7275 19.0225C34.6726 17.9676 33.2418 17.375 31.75 17.375C30.2582 17.375 28.8274 17.9676 27.7725 19.0225C26.7176 20.0774 26.125 21.5082 26.125 23C26.125 24.4918 26.7176 25.9226 27.7725 26.9775C28.8274 28.0324 30.2582 28.625 31.75 28.625ZM40.75 23C40.75 25.3869 39.8018 27.6761 38.114 29.364C36.4261 31.0518 34.1369 32 31.75 32C29.3631 32 27.0739 31.0518 25.386 29.364C23.6982 27.6761 22.75 25.3869 22.75 23C22.75 20.6131 23.6982 18.3239 25.386 16.636C27.0739 14.9482 29.3631 14 31.75 14C34.1369 14 36.4261 14.9482 38.114 16.636C39.8018 18.3239 40.75 20.6131 40.75 23ZM30.7023 39.2563L29.3945 37.0766C28.9445 36.3242 29.4859 35.375 30.3578 35.375H31.743H33.1281C34 35.375 34.5414 36.3313 34.0914 37.0766L32.7836 39.2563L33.9016 43.4187L36.9812 37.2594C37.1922 36.8375 37.6422 36.5914 38.0992 36.6687C43.45 37.5969 47.5 42.2445 47.5 47.8414C47.5 49.0367 46.5297 50 45.3414 50H18.1586C16.9703 50 16 49.0297 16 47.8414C16 42.2445 20.05 37.5969 25.3867 36.6687C25.8508 36.5914 26.2937 36.8375 26.5047 37.2594L29.5844 43.4187L30.7023 39.2563ZM24.332 40.4586C21.7867 41.4992 19.8953 43.8266 19.4664 46.625H27.4117L24.332 40.4586ZM36.0883 46.625H44.0336C43.6047 43.8266 41.7133 41.4992 39.168 40.4586L36.0883 46.625Z" fill="#1E40AE"/>
</g>
<defs>
<clipPath id="clip0_0_305">
<rect width="31.5" height="36" fill="white" transform="translate(16 14)"/>
</clipPath>
</defs>
</svg>
