<svg width="64" height="64" viewBox="0 0 64 64" fill="none" xmlns="http://www.w3.org/2000/svg">
<circle opacity="0.1" cx="32" cy="32" r="32" fill="#64748B"/>
<g clip-path="url(#clip0_0_442)">
<path d="M38.1875 14H48.3125C49.2477 14 50 14.7523 50 15.6875V25.8125C50 26.4945 49.5922 27.1133 48.9594 27.3734C48.3266 27.6336 47.6023 27.493 47.1172 27.0078L44.375 24.2656L38.2578 30.3828C37.5969 31.0438 36.5281 31.0438 35.8742 30.3828L33.6242 28.1328C32.9633 27.4719 32.9633 26.4031 33.6242 25.7492L39.7414 19.632L36.9922 16.8828C36.507 16.3977 36.3664 15.6734 36.6266 15.0406C36.8867 14.4078 37.5055 14 38.1875 14ZM25.8125 50H15.6875C14.7523 50 14 49.2477 14 48.3125V38.1875C14 37.5055 14.4078 36.8867 15.0406 36.6266C15.6734 36.3664 16.3977 36.507 16.8828 36.9922L19.625 39.7344L25.7422 33.6172C26.4031 32.9562 27.4719 32.9562 28.1258 33.6172L30.3758 35.8672C31.0367 36.5281 31.0367 37.5969 30.3758 38.2508L24.2586 44.368L27.0008 47.1102C27.4859 47.5953 27.6266 48.3195 27.3664 48.9523C27.1063 49.5852 26.4875 49.993 25.8055 49.993L25.8125 50Z" fill="#1E40AF"/>
</g>
<defs>
<clipPath id="clip0_0_442">
<rect width="36" height="36" fill="white" transform="translate(14 14)"/>
</clipPath>
</defs>
</svg>
