<svg width="64" height="64" viewBox="0 0 64 64" fill="none" xmlns="http://www.w3.org/2000/svg">
<circle opacity="0.1" cx="32" cy="32" r="32" fill="#64748B"/>
<path d="M33.9539 22.557C34.9242 23.682 36.5203 24.0406 37.8844 23.4359C38.5102 23.1617 39.1992 23 39.9375 23C42.7359 23 45 25.2641 45 28.0625C45 28.3438 44.9789 28.618 44.9367 28.8852C44.6906 30.4039 45.5063 31.9016 46.9125 32.5203C49.1063 33.4695 50.625 35.6562 50.625 38.1875C50.625 41.4781 48.0516 44.1781 44.8031 44.3609C44.7609 44.3609 44.7117 44.368 44.6695 44.375H44.4375H19.125C15.3984 44.375 12.375 41.3516 12.375 37.625C12.375 34.693 14.2453 32.1898 16.875 31.2617C18.225 30.7836 19.125 29.5109 19.125 28.0766V28.0625C19.125 23.4008 22.9008 19.625 27.5625 19.625C30.1148 19.625 32.4 20.757 33.9539 22.557ZM45 47.75V47.7359C50.0203 47.4477 54 43.2852 54 38.1875C54 34.2711 51.6445 30.8961 48.2695 29.4195C48.3398 28.9766 48.375 28.5195 48.375 28.0625C48.375 23.4008 44.5992 19.625 39.9375 19.625C38.7141 19.625 37.5609 19.8852 36.5133 20.3492C34.3406 17.8391 31.1414 16.25 27.5625 16.25C21.0375 16.25 15.75 21.5375 15.75 28.0625V28.0766C11.8195 29.4688 9 33.2164 9 37.625C9 43.2148 13.5352 47.75 19.125 47.75H41.625H44.4375H45ZM21.375 29.1875V30.3125C21.375 31.8664 22.6336 33.125 24.1875 33.125H25.3125C26.8664 33.125 28.125 31.8664 28.125 30.3125V29.1875C28.125 27.6336 26.8664 26.375 25.3125 26.375H24.1875C22.6336 26.375 21.375 27.6336 21.375 29.1875ZM24.1875 28.625H25.3125C25.6219 28.625 25.875 28.8781 25.875 29.1875V30.3125C25.875 30.6219 25.6219 30.875 25.3125 30.875H24.1875C23.8781 30.875 23.625 30.6219 23.625 30.3125V29.1875C23.625 28.8781 23.8781 28.625 24.1875 28.625ZM29.25 27.5C29.25 28.1187 29.7563 28.625 30.375 28.625V32C30.375 32.6187 30.8813 33.125 31.5 33.125C32.1187 33.125 32.625 32.6187 32.625 32V27.5C32.625 26.8813 32.1187 26.375 31.5 26.375H30.375C29.7563 26.375 29.25 26.8813 29.25 27.5ZM37.6875 26.375C36.1336 26.375 34.875 27.6336 34.875 29.1875V30.3125C34.875 31.8664 36.1336 33.125 37.6875 33.125H38.8125C40.3664 33.125 41.625 31.8664 41.625 30.3125V29.1875C41.625 27.6336 40.3664 26.375 38.8125 26.375H37.6875ZM37.125 29.1875C37.125 28.8781 37.3781 28.625 37.6875 28.625H38.8125C39.1219 28.625 39.375 28.8781 39.375 29.1875V30.3125C39.375 30.6219 39.1219 30.875 38.8125 30.875H37.6875C37.3781 30.875 37.125 30.6219 37.125 30.3125V29.1875ZM22.5 36.5C22.5 37.1187 23.0063 37.625 23.625 37.625V41C23.625 41.6187 24.1313 42.125 24.75 42.125C25.3687 42.125 25.875 41.6187 25.875 41V36.5C25.875 35.8813 25.3687 35.375 24.75 35.375H23.625C23.0063 35.375 22.5 35.8813 22.5 36.5ZM28.125 38.1875V39.3125C28.125 40.8664 29.3836 42.125 30.9375 42.125H32.0625C33.6164 42.125 34.875 40.8664 34.875 39.3125V38.1875C34.875 36.6336 33.6164 35.375 32.0625 35.375H30.9375C29.3836 35.375 28.125 36.6336 28.125 38.1875ZM30.9375 37.625H32.0625C32.3719 37.625 32.625 37.8781 32.625 38.1875V39.3125C32.625 39.6219 32.3719 39.875 32.0625 39.875H30.9375C30.6281 39.875 30.375 39.6219 30.375 39.3125V38.1875C30.375 37.8781 30.6281 37.625 30.9375 37.625ZM37.125 35.375C36.5063 35.375 36 35.8813 36 36.5C36 37.1187 36.5063 37.625 37.125 37.625V41C37.125 41.6187 37.6313 42.125 38.25 42.125C38.8687 42.125 39.375 41.6187 39.375 41V36.5C39.375 35.8813 38.8687 35.375 38.25 35.375H37.125Z" fill="#1E40AE"/>
</svg>
