<svg width="1200" height="409" viewBox="0 0 1200 409" fill="none" xmlns="http://www.w3.org/2000/svg">
<g opacity="0.2" clip-path="url(#clip0_0_147)">
<g style="mix-blend-mode:color-dodge">
<path d="M0.527527 408.584C400.117 407.719 799.803 407.336 1199.39 408.584" stroke="#666666" stroke-miterlimit="10"/>
<path d="M0.527527 400.451C116.21 396.503 233.667 395.157 349.509 398.273C396.824 399.546 444.267 400.174 491.599 398.836C543.214 397.376 592.351 391.551 643.279 387.995C733.849 381.665 825.682 396.536 915.869 399.015C1010.87 401.634 1104.15 394.831 1199.39 401.03" stroke="#666666" stroke-miterlimit="10"/>
<path d="M0.527527 391.364C120.686 384.585 245.224 383.345 365.67 389.431C413.96 391.87 462.65 393.158 511.02 390.573C568.102 387.53 617.639 376.322 672.563 369.478C764.301 358.049 854.871 385.801 944.929 390.312C984.46 392.294 1023.59 387.962 1063.03 386.665C1109.65 385.123 1154.14 387.579 1199.39 393.477" stroke="#666666" stroke-miterlimit="10"/>
<path d="M0.527527 381.51C124.378 372.349 251.714 373.475 375.66 381.966C424.43 385.303 473.232 387.138 522.114 383.272C547.546 381.257 572.354 377.872 596.619 373.507C629.612 367.577 660.031 356.679 692.752 351.23C784.585 335.935 871.735 374.959 958.82 381.934C998.783 385.132 1035.24 378.5 1074.61 376.207C1118.46 373.654 1158.39 378.026 1199.41 385.931" stroke="#666666" stroke-miterlimit="10"/>
<path d="M0.527527 371.036C121.773 360.195 245.639 363.588 366.453 374.56C418.883 379.324 471.394 382.464 524.144 376.999C591.12 370.057 640.514 349.509 701.832 336.375C801.274 315.076 880.463 366.745 973.223 374.6C1009.84 377.7 1040.04 369.788 1075.09 366.337C1120.09 361.908 1158.97 368.425 1199.39 378.385" stroke="#666666" stroke-miterlimit="10"/>
<path d="M0.527527 360.113C121.869 347.404 240.892 354.925 360.443 368.687C413.033 374.739 465.767 378.051 518.821 371.354C546.363 367.879 572.386 362.21 597.514 355.553C635.127 345.593 668.407 328.952 706.148 320.053C807.588 296.127 879.967 356.459 970.202 366.476C1011.27 371.036 1038.58 361.019 1076.45 356.1C1121.47 350.259 1160.71 359.681 1199.39 370.832" stroke="#666666" stroke-miterlimit="10"/>
<path d="M0.527527 348.913C119.471 334.499 228.568 346.531 343.819 362.544C397.336 369.975 450.821 374.47 505.314 366.761C534.15 362.683 560.989 355.961 586.757 348.301C627.134 336.302 661.965 317.173 702.615 306.291C809.378 277.716 872.694 347.779 964.958 358.939C1008.33 364.184 1033.73 352.16 1072.34 345.952C1119.08 338.439 1160.63 350.92 1199.38 363.278" stroke="#666666" stroke-miterlimit="10"/>
<path d="M0.527527 337.591C114.116 321.619 210.585 337.395 318.227 355.455C371.616 364.412 424.862 371.117 480.505 363.776C565.161 352.608 620.341 318.625 691.489 295.727C807.028 258.554 858.515 341.335 959.316 351.874C1002.95 356.442 1027.64 342.24 1066.21 335.38C1115.06 326.693 1160.15 342.338 1199.39 355.708" stroke="#666666" stroke-miterlimit="10"/>
<path d="M0.527527 326.326C110.743 308.159 195.367 328.577 296.583 348.815C351.236 359.738 406.511 368.597 464.744 359.567C551.078 346.18 607.345 309.717 678.718 284.356C800.059 241.245 839.893 333.365 944.114 344.198C988.472 348.807 1015.85 333.047 1053.83 325.355C1107.48 314.489 1156.73 332.982 1199.39 348.179" stroke="#666666" stroke-miterlimit="10"/>
<path d="M0.527527 315.264C49.9048 305.663 98.0992 303.452 149.171 311.202C196.326 318.356 236.816 332.802 281.318 343.023C333.876 355.096 387.873 365.685 445.386 356.067C536.74 340.788 591.728 299.3 666.281 271.777C786.999 227.206 822.118 322.214 921.224 335.029C971.4 341.514 1000.48 322.712 1043.14 314.114C1100.8 302.49 1154.67 324.188 1199.39 340.625" stroke="#666666" stroke-miterlimit="10"/>
<path d="M0.527527 304.586C44.9655 294.316 89.2435 291.118 136.175 299.145C182.403 307.05 219.952 323.691 262.535 335.209C312.073 348.611 363.048 362.063 420.05 353.481C515.624 339.108 575.615 292.513 649.785 262.364C776.257 210.948 797.245 314.342 900.859 326.244C954.025 332.354 987.129 310.549 1032.78 302.049C1094.2 290.621 1153.1 315.59 1199.38 333.063" stroke="#666666" stroke-miterlimit="10"/>
<path d="M0.527527 294.447C103.23 266.304 164.916 299.594 248.565 326.497C296.072 341.775 347.223 359.452 405.44 349.615C499.719 333.683 561.74 285.784 633.209 253.929C679.341 233.373 723.507 228.601 763.022 254.606C797.293 277.153 819.304 309.627 880.287 316.161C933.388 321.847 970.889 299.529 1016.45 290.433C1083.49 277.039 1149.86 306.324 1199.39 325.518" stroke="#666666" stroke-miterlimit="10"/>
<path d="M0.527527 285.017C100.001 253.114 161.991 286.24 240.444 316.308C282.293 332.346 329.672 354.558 386.21 347.029C420.626 342.444 451.141 329.417 477.42 317.915C527.932 295.817 569.861 269.746 617.815 246.4C663.788 224.016 709.105 215.206 748.523 244.736C777.904 266.744 800.442 300.744 859.506 305.549C915.661 310.117 956.758 285.531 1006.01 277.031C1077.04 264.762 1148.66 297.734 1199.39 317.948" stroke="#666666" stroke-miterlimit="10"/>
<path d="M0.527527 276.468C39.3068 262.233 82.0983 253.301 129.35 261.972C171.422 269.697 204.127 287.643 236.464 302.596C272.91 319.449 318.946 349.37 374.893 343.488C406.383 340.177 434.085 327.875 457.615 317.401C509.55 294.275 555.075 267.487 601.766 241.718C645.469 217.588 693.903 200.23 734.665 233.813C762.111 256.417 783.418 292.171 845.663 293.427C900.907 294.544 942.42 272.03 992.213 263.726C1068.59 250.993 1146.07 288.418 1199.41 310.402" stroke="#666666" stroke-miterlimit="10"/>
<path d="M0.527527 268.62C40.3298 252.795 84.6719 242.289 134.944 251.409C177.368 259.101 212.503 276.639 243.865 292.407C276.474 308.812 320.241 341.033 373.63 335.535C403.506 332.46 429.785 320.134 451.812 310.133C502.181 287.252 547.162 261.165 592.671 235.853C634.344 212.678 683.289 191.55 724.626 224.979C751.672 246.849 772.213 281.754 833.291 282.186C888.055 282.57 933.724 262.282 984.86 255.332C1064.45 244.507 1142.23 279.992 1199.39 302.661" stroke="#666666" stroke-miterlimit="10"/>
<path d="M0.527527 259.876C44.438 242.248 91.2896 232.769 144.967 245.005C189.357 255.128 228.232 274.282 262.583 291.241C293.402 306.462 331.59 332.15 380.184 324.147C409.836 319.261 435.62 306.209 457.743 295.719C502.085 274.698 543.294 251.931 585.126 229.629C624.992 208.362 673.363 187.675 716.218 217.327C746.701 238.422 766.107 272.161 826.961 273.703C881.166 275.073 933.58 256.825 985.835 251.931C1064.86 244.524 1138.36 272.324 1199.41 293.745" stroke="#666666" stroke-miterlimit="10"/>
<path d="M0.527527 250.161C47.7468 231.774 95.8613 223.69 151.025 238.21C193.289 249.328 232.292 267.234 267.059 283.573C299.461 298.803 339.247 325.045 388.209 313.429C413.768 307.368 434.804 295.825 454.881 286.061C497.113 265.504 537.06 243.708 578.301 222.646C620.964 200.858 669.302 183.964 713.565 212.93C744.032 232.875 765.979 264.273 823.748 265.578C876.898 266.785 929.696 253.791 981.567 249.467C1061.63 242.794 1132.72 263.628 1199.41 283.703" stroke="#666666" stroke-miterlimit="10"/>
<path d="M0.527527 239.654C54.988 219.603 106.939 215.068 164.932 233.724C206.604 247.126 245.128 265.284 282.421 281.656C313.559 295.328 348.582 316.79 392.157 304.358C415.495 297.702 434.916 285.833 453.507 276.231C493.085 255.781 531.625 234.833 572.354 214.97C614.554 194.389 662.86 179.535 707.778 205.54C741.314 224.955 764.54 255.92 822.166 258.726C872.95 261.198 928.289 251.066 978.242 247.118C1058.07 240.812 1128.31 255.21 1199.38 272.789" stroke="#666666" stroke-miterlimit="10"/>
<path d="M0.527527 228.552C59.5277 208.297 113.78 206.127 172.908 227.32C217.522 243.308 257.612 263.514 300.036 281.036C329.208 293.076 361.482 309.587 397.943 295.752C422.048 286.607 441.726 272.83 461.739 261.605C495.579 242.639 530.266 223.927 567.495 206.682C613.116 185.546 662.589 175.562 708.529 201.037C742.161 219.685 767.929 248.79 823.189 251.947C875.491 254.933 932.046 247.925 983.853 244.295C1060.04 238.961 1127.84 247.648 1199.39 261.165" stroke="#666666" stroke-miterlimit="10"/>
<path d="M0.527527 217.026C67.7919 195.564 124.97 197.848 186.719 223.005C233.571 242.093 273.501 264.305 322.335 282.317C355.839 294.667 379.992 301.641 410.571 284.429C462.538 255.177 504.626 221.838 565.513 196.616C610.206 178.107 659.376 171.206 703.91 192.749C741.538 210.948 766.858 238.887 821.175 245.446C871.319 251.49 934.252 245.527 984.668 242.02C1059.08 236.84 1126.23 239.882 1199.41 249.084" stroke="#666666" stroke-miterlimit="10"/>
<path d="M0.527527 205.271C75.8482 182.846 137.182 190.131 200.69 218.836C246.183 239.401 284.019 263.212 335.65 280.106C373.55 292.513 393.5 294.708 419.427 274.951C460.508 243.651 501.861 211.658 561.708 188.573C610.094 169.901 659.12 165.708 706.403 187.235C745.774 205.165 773.795 234.009 829.471 240.355C878.848 245.984 936.473 243.308 986.25 239.85C1058.52 234.825 1126.41 232.557 1199.41 236.709" stroke="#666666" stroke-miterlimit="10"/>
<path d="M0.527527 193.475C82.6258 170.349 146.853 181.745 211.927 213.387C257.98 235.779 295.944 263.131 352.642 279.005C394.73 290.792 409.5 284.666 429.577 264.46C461.515 232.329 501.909 199.854 561.069 178.923C611.149 161.197 661.806 160.65 708.849 181.019C749.882 198.794 779.774 226.888 834.746 234.768C952.65 251.67 1080.96 226.406 1199.41 224.31" stroke="#666666" stroke-miterlimit="10"/>
<path d="M0.527527 181.818C41.3689 170.716 79.7645 164.125 125.465 172.209C163.269 178.898 194.232 192.937 221.966 207.237C267.715 230.844 306.83 262.609 367.78 276.639C413.497 287.162 424.318 272.985 439.744 253.203C464.888 220.933 502.852 187.871 562.172 168.979C691.457 127.792 738.117 211.128 840.98 229.196C961.106 250.299 1081.94 223.674 1199.41 212.066" stroke="#666666" stroke-miterlimit="10"/>
<path d="M0.527527 170.488C43.1272 158.986 82.386 152.575 128.918 161.311C167.953 168.636 199.507 183.605 227.784 198.769C272.254 222.613 318.243 263.889 384.58 273.384C431.016 280.033 438.337 257.861 450.102 240.013C470.69 208.77 506.177 174.322 565.545 157.795C688.788 123.485 750.857 200.629 843.905 222.434C965.982 251.042 1084.19 221.708 1199.39 200.189" stroke="#666666" stroke-miterlimit="10"/>
<path d="M0.527527 159.68C43.5428 147.737 82.2901 141.252 129.637 149.711C168.896 156.727 200.978 172.38 228.887 187.635C274.172 212.392 322.719 259.419 393.132 266.434C440.991 271.206 447.704 246.808 458.158 228.487C476.109 197.056 508.431 162.265 570.468 147.647C693.887 118.567 760.448 192.627 851.482 216.577C898.877 229.041 960.243 235.428 1013.04 231.089C1079.97 225.591 1141.18 205.352 1199.41 188.932" stroke="#666666" stroke-miterlimit="10"/>
<path d="M0.527527 149.565C46.3402 136.048 90.6182 128.258 141.338 139.939C179.398 148.708 209.594 164.827 236.88 180.473C277.769 203.917 329.304 253.309 398.087 257.013C449.862 259.803 456.4 230.95 467.493 211.47C484.645 181.362 515.528 149.083 577.693 137.467C700.185 114.57 771.014 183.23 859.394 210.059C904.056 223.617 962.433 232.9 1014.67 229.58C1084.65 225.126 1145.22 199.283 1199.38 178.441" stroke="#666666" stroke-miterlimit="10"/>
<path d="M0.527527 140.339C43.7826 126.275 86.3663 116.487 137.47 127.018C178.423 135.461 211.032 153.382 239.166 170.129C279.384 194.071 329.96 243.227 401.412 244.092C452.356 244.703 461.787 215.435 473.808 195.89C492.398 165.692 521.794 136.399 586.996 127.858C711.854 111.494 781.181 174.273 870.52 204.39C914.255 219.138 972.583 231.301 1025.86 227.377C1095.54 222.238 1151.52 192.684 1199.39 168.979" stroke="#666666" stroke-miterlimit="10"/>
<path d="M0.527527 132.189C40.2339 117.498 81.4749 105.189 131.971 113.819C171.326 120.541 202.32 137.002 228.807 152.615C272.19 178.18 315.829 223.657 390.51 226.561C447.289 228.764 462.043 200.605 478.379 178.327C500.662 147.933 531.721 122.197 599.96 117.49C720.934 109.145 790.644 162.225 874.692 195.637C916.828 212.384 973.878 228.421 1029.01 225.68C1102.14 222.042 1155.96 187.341 1199.39 160.74" stroke="#666666" stroke-miterlimit="10"/>
<path d="M0.527527 125.761C40.0421 111.69 80.7875 100.107 130.277 108.329C168.816 114.733 199.491 130.468 225.658 145.608C267.81 169.982 312.424 216.773 384.964 218.053C441.054 219.04 460.252 193.687 480.361 171.402C506.145 142.843 541.04 116.699 607.217 112.139C723.955 104.096 796.878 153.684 879.727 185.4C920.377 200.956 977.714 216.781 1029.92 216.259C1102.91 215.525 1156.97 180.097 1199.39 154.239" stroke="#666666" stroke-miterlimit="10"/>
<path d="M0.527527 121.365C39.4187 107.783 79.5727 96.5173 128.087 104.006C165.571 109.789 195.799 124.521 221.55 138.944C263.031 162.184 307.453 208.485 377.642 208.705C432.678 208.876 456.112 186.525 480.137 164.753C509.486 138.16 548.009 112.644 611.837 108.174C724.354 100.302 800.362 144.776 883.26 174.379C923.51 188.752 980.224 204.789 1030.03 207.057C1102.65 210.361 1157.59 174.583 1199.38 149.654" stroke="#666666" stroke-miterlimit="10"/>
<path d="M0.527527 118.64C37.8362 105.629 77.7184 94.3803 124.314 100.417C164.037 105.556 195.591 120.883 222.637 135.722C263.75 158.277 304.975 200.173 373.662 198.615C425.629 197.44 452.116 177.308 479.258 157.494C512.587 133.152 552.821 110.328 613.851 105.907C724.674 97.8716 802.312 136.317 888.535 163.742C928.369 176.418 978.913 191.452 1024.81 197.513C1099.2 207.335 1155.85 171.761 1199.39 146.636" stroke="#666666" stroke-miterlimit="10"/>
<path d="M0.527527 117.237C36.8132 104.422 75.8482 92.9281 121.677 97.6838C159.833 101.648 190.843 115.287 217.426 128.983C259.115 150.454 297.926 189.013 364.471 187.504C414.951 186.362 445.306 169.411 476.189 151.147C513.194 129.269 555.906 108.484 614.586 104.128C720.726 96.2481 802.057 126.985 889.286 151.441C932.573 163.579 978.098 178.417 1023.54 188.238C1096.71 204.055 1154.22 169.827 1199.38 144.858" stroke="#666666" stroke-miterlimit="10"/>
<path d="M0.527527 116.805C76.8713 89.184 142.905 89.3227 212.231 122.074C254.799 142.182 290.973 176.696 355.184 175.521C404.018 174.624 437.969 160.887 472.385 144.76C512.938 125.761 557.616 107.383 613.963 103.109C715.099 95.4325 800.73 117.661 888.743 138.748C937.193 150.356 976.388 164.917 1021.51 179.037C1092.77 201.331 1150.94 169.501 1199.41 144.009" stroke="#666666" stroke-miterlimit="10"/>
<path d="M0.527527 116.992C71.5803 90.432 136.974 85.2765 207.34 114.839C251.026 133.193 284.675 163.261 346.28 162.641C448.855 161.613 512.027 110.344 612.284 102.611C708.322 95.204 798.54 108.337 886.872 125.737C940.869 136.374 974.869 151.441 1018.67 169.819C1087.37 198.647 1145.76 170.447 1199.39 143.716" stroke="#666666" stroke-miterlimit="10"/>
<path d="M0.527527 117.449C65.506 92.1776 130.389 81.4752 201.361 106.51C245.24 121.985 277.417 147.843 334.116 148.838C436.067 150.641 511.931 109.887 609.775 102.097C699.05 94.9919 794.464 98.9319 880.59 112.114C941.908 121.503 973.223 138.576 1016.45 161.368C1032.59 169.884 1050.75 178.751 1075 180.089C1123.24 182.74 1168.37 158.342 1199.39 143.691" stroke="#666666" stroke-miterlimit="10"/>
<path d="M0.527527 117.824C60.9823 93.3686 125.561 77.8289 198.116 98.3038C243.002 110.972 274.22 132.475 327.754 134.065C427.355 137.027 511.26 109.789 607.073 102.195C693.024 95.3835 790.42 89.706 876.258 99.1032C942.292 106.331 971.992 126.487 1012.02 152.248C1027.35 162.119 1044.71 173.474 1070.04 176.573C1118.99 182.561 1167.28 157.95 1199.38 143.601" stroke="#666666" stroke-miterlimit="10"/>
<path d="M0.527527 117.759C59.5277 92.9608 125.098 73.7667 201.058 90.3097C242.474 99.3317 273.293 115.867 319.378 118.167C418.42 123.118 508.479 109.683 605.187 102.44C656.147 98.622 706.355 94.837 756.884 89.6408C796.158 85.6029 834.33 83.5065 874.26 86.4268C943.251 91.4681 972.391 116.625 1008.17 144.034C1022.49 155.005 1039.7 168.628 1065.73 172.992C1115.6 181.362 1165.34 157.542 1199.39 143.079" stroke="#666666" stroke-miterlimit="10"/>
<path d="M0.527527 116.911C57.3537 92.2593 122.956 69.4188 200.626 79.9826C241.803 85.5866 275.036 98.622 317.827 101.379C415.447 107.66 505.889 109.088 603.429 102.154C655.076 98.4834 703.494 93.0751 752.759 84.363C790.691 77.6577 827.089 72.1597 867.754 73.628C940.166 76.2384 969.578 105.955 1002.27 134.816C1016.19 147.109 1033.01 162.926 1059.99 168.906C1110.82 180.171 1163.2 156.498 1199.42 141.84" stroke="#666666" stroke-miterlimit="10"/>
<path d="M0.527527 114.928C56.5545 90.0486 121.901 64.6385 200.498 68.4888C242.698 70.5526 281.318 80.7329 323.214 83.8817C418.979 91.0846 503.22 107.522 601.591 101.395C653.637 98.1488 700.409 91.2151 747.309 79.3544C782.635 70.4221 816.299 61.3838 856.773 61.1227C935.45 60.6333 965.166 95.7016 996.848 126.634C1010.53 139.996 1026.98 157.379 1054.86 164.541C1106.58 177.838 1161.12 154.418 1199.39 139.515" stroke="#666666" stroke-miterlimit="10"/>
<path d="M0.527527 111.462C57.7054 85.7742 123.227 58.7082 202.592 56.0326C245.384 54.5888 290.429 61.082 332.07 65.4869C425.725 75.3899 503.699 105.515 603.157 100.033C654.293 97.2189 699.45 88.7272 742.321 74.4029C776.913 62.844 808.61 50.453 851.562 49.1723C931.95 46.7822 961.394 87.5117 990.726 118.42C1004.66 133.095 1020.67 150.845 1049.41 159.533C1101.02 175.13 1160.53 150.486 1199.39 135.803" stroke="#666666" stroke-miterlimit="10"/>
<path d="M0.527527 106.143C98.3709 62.2893 201.489 28.4772 334.691 44.9061C429.513 56.6037 502.548 102.097 605.427 97.8063C657.554 95.6283 701.464 84.9504 741.122 68.0402C772.181 54.8009 799.851 40.2809 842.227 37.9397C923.046 33.4777 952.666 75.1942 980.368 106.062C995.49 122.906 1011.86 143.977 1044.67 154.01C1097.58 170.186 1159.03 145.331 1199.38 130.354" stroke="#666666" stroke-miterlimit="10"/>
<path d="M0.527527 98.9157C94.6784 57.8681 215.796 12.4644 347.511 31.2915C439.967 44.5064 509.821 94.8289 611.437 92.1696C662.253 90.84 705.428 78.4164 741.298 60.8129C769.751 46.8557 795.183 31.1121 837.032 28.7464C914.558 24.3496 946.112 65.5278 973.43 94.8044C989.783 112.318 1006.92 133.756 1040.55 144.531C1094.4 161.784 1156.6 138.226 1199.38 123.021" stroke="#666666" stroke-miterlimit="10"/>
<path d="M0.527527 91.3621C95.0141 52.0601 219.057 8.66315 348.694 24.9615C443.98 36.9364 519.46 86.8756 622.627 83.4576C669.382 81.9077 708.561 70.3162 741.394 53.9689C767.593 40.9254 790.564 26.0627 828.815 22.8732C905.111 16.5105 942.804 58.7246 972.407 86.7206C989.415 102.79 1007.86 121.414 1038.73 131.782C1092.71 149.915 1153.45 129.84 1199.39 114.749" stroke="#666666" stroke-miterlimit="10"/>
<path d="M0.527527 83.8083C96.8044 45.893 226.889 3.96441 355.567 20.6706C449.127 32.8169 529.211 78.4 630.172 75.602C673.219 74.411 710.911 62.7053 741.011 47.81C765.132 35.8759 786.599 21.6576 821.255 17.9134C896.351 9.80505 939.543 52.3455 972.248 78.9057C991.909 94.8696 1012.47 112.44 1046.23 121.471C1099.65 135.754 1152.78 119.986 1199.39 105.866" stroke="#666666" stroke-miterlimit="10"/>
<path d="M0.527527 76.2546C99.8895 39.5222 233.139 0.946188 361.69 17.1956C454.354 28.9095 537.843 71.1155 637.253 67.6486C677.295 66.2537 711.518 55.9836 740.131 42.2549C764.189 30.7123 785.8 16.6409 820.168 13.4024C891.572 6.66447 938.088 46.6109 972.935 71.3602C992.932 85.5621 1014.13 100.049 1044.61 108.655C1097.65 123.616 1151.1 109.92 1199.39 96.4766" stroke="#666666" stroke-miterlimit="10"/>
<path d="M0.527527 68.701C100.577 34.3179 229.671 1.12571 355.12 13.1904C452.212 22.5305 539.953 63.9371 641.92 60.2908C680.588 58.904 713.517 48.8379 741.682 35.9004C764.716 25.3122 785.64 13.1088 817.562 10.0335C883.644 3.66264 932.845 38.0702 969.163 60.5518C992.932 75.2758 1018.91 91.4354 1054.47 98.9646C1104.76 109.61 1154.27 98.2386 1199.41 86.7042" stroke="#666666" stroke-miterlimit="10"/>
<path d="M0.527527 61.1473C103.07 28.7954 234.834 -0.889131 359.116 11.2408C453.858 20.4912 545.915 57.2318 645.005 53.5039C716.969 50.7957 748.38 14.7974 813.246 7.50475C878.464 0.179479 931.566 32.5967 971.656 53.5773C995.761 66.1967 1020.92 79.4523 1053.47 86.3045C1103.85 96.909 1152.75 87.5036 1199.38 76.6544" stroke="#666666" stroke-miterlimit="10"/>
<path d="M0.527527 53.5937C105.772 23.5666 235.042 -0.80751 358.157 9.29941C453.667 17.1386 547.418 50.445 646.316 46.6681C714.252 44.0741 750.57 11.7303 813.278 5.45731C874.42 -0.65252 927.026 25.0838 969.019 43.8865C994.946 55.5025 1021.62 67.6895 1054.28 74.142C1104.3 84.0287 1152.14 76.4423 1199.41 66.4659" stroke="#666666" stroke-miterlimit="10"/>
<path d="M0.527527 46.0399C107.354 19.0228 235.185 -0.929998 356.079 7.8636C451.652 14.8136 547.626 43.6253 645.709 39.9953C710.895 37.5807 753.063 9.51953 814.621 3.80941C875.347 -1.8273 930.655 21.4292 976.068 38.4209C1000.73 47.6469 1026.44 56.9788 1055.53 62.2321C1105.67 71.2868 1151.44 65.3156 1199.39 56.2447" stroke="#666666" stroke-miterlimit="10"/>
<path d="M0.527527 38.4862C108.489 14.9278 234.53 -0.848439 353.042 6.62367C448.775 12.6601 545.644 36.7487 643.199 33.4531C707.219 31.2914 756.164 7.82279 817.93 2.70815C874.932 -2.00678 928.673 15.5478 975.317 29.8394C1051.13 53.0715 1113.7 60.4049 1199.39 46.0888" stroke="#666666" stroke-miterlimit="10"/>
<path d="M0.527527 30.9324C109.129 11.2488 228.68 0.407719 344.33 5.39184C442.062 9.60918 539.25 29.301 637.988 26.7722C704.213 25.0755 760.96 5.05739 826.146 1.66395C879.999 -1.14217 930.831 11.3467 978.21 22.7669C1054.2 41.0964 1116.85 48.0139 1199.39 36.145" stroke="#666666" stroke-miterlimit="10"/>
<path d="M0.527527 23.379C111.079 7.73322 229.111 0.448729 343.898 4.60081C439.696 8.06767 535.861 22.6285 632.297 20.5157C700.025 19.0311 763.229 4.33161 830.43 1.31341C886.984 -1.22352 940.086 8.84261 992.676 18.1256C1063.31 30.5982 1125.56 35.2397 1199.39 26.5277" stroke="#666666" stroke-miterlimit="10"/>
<path d="M0.527527 15.8333C109.464 5.06561 222.318 0.815647 333.269 3.34442C429.881 5.54689 526.382 15.2052 623.266 13.9C697.436 12.9048 769.799 2.81419 843.809 0.848276C896.623 -0.554784 947.679 5.65294 998.783 11.6812C1066.85 19.708 1129.94 23.4441 1199.39 17.3342" stroke="#666666" stroke-miterlimit="10"/>
<path d="M0.527527 8.2796C108.601 2.56948 217.778 0.815651 326.411 2.06372C421.921 3.16496 517.382 8.01857 612.972 7.36598C694.271 6.81128 775.154 1.62323 856.421 0.595404C971.688 -0.864757 1083.77 14.6342 1199.39 8.69562" stroke="#666666" stroke-miterlimit="10"/>
<path d="M0.527527 0.725975C400.133 -0.399735 799.787 1.95773 1199.39 0.725975" stroke="#666666" stroke-miterlimit="10"/>
</g>
</g>
<defs>
<clipPath id="clip0_0_147">
<rect width="1200" height="409" fill="white"/>
</clipPath>
</defs>
</svg>
