<svg width="64" height="64" viewBox="0 0 64 64" fill="none" xmlns="http://www.w3.org/2000/svg">
<circle opacity="0.1" cx="32" cy="32" r="32" fill="#64748B"/>
<g clip-path="url(#clip0_0_386)">
<path d="M25.25 28.625C26.7418 28.625 28.1726 28.0324 29.2275 26.9775C30.2824 25.9226 30.875 24.4918 30.875 23C30.875 21.5082 30.2824 20.0774 29.2275 19.0225C28.1726 17.9676 26.7418 17.375 25.25 17.375C23.7582 17.375 22.3274 17.9676 21.2725 19.0225C20.2176 20.0774 19.625 21.5082 19.625 23C19.625 24.4918 20.2176 25.9226 21.2725 26.9775C22.3274 28.0324 23.7582 28.625 25.25 28.625ZM25.25 14C27.6369 14 29.9261 14.9482 31.614 16.636C33.3018 18.3239 34.25 20.6131 34.25 23C34.25 25.3869 33.3018 27.6761 31.614 29.364C29.9261 31.0518 27.6369 32 25.25 32C22.8631 32 20.5739 31.0518 18.886 29.364C17.1982 27.6761 16.25 25.3869 16.25 23C16.25 20.6131 17.1982 18.3239 18.886 16.636C20.5739 14.9482 22.8631 14 25.25 14ZM12.9664 46.625H33.1672C33.3992 46.9203 33.6383 47.2016 33.8914 47.4688C34.9953 48.657 36.6758 48.7625 37.9133 48.0805V48.1437C37.9133 48.7906 38.1031 49.4445 38.4688 49.993L11.5883 50C10.4352 50 9.5 49.0648 9.5 47.9117C9.5 40.9859 15.1109 35.375 22.0367 35.375H25.25H28.4633C29.293 35.375 30.1086 35.4594 30.8891 35.607C30.7414 36.9078 31.4094 38.1102 32.4219 38.757C32.1688 38.9188 31.9297 39.1156 31.7258 39.3477C30.7133 38.9609 29.6094 38.75 28.4563 38.75H22.0297C17.4102 38.75 13.5852 42.1742 12.9594 46.625H12.9664ZM40.1562 29.3422C40.1562 28.85 40.4727 28.407 40.9508 28.3016C41.6891 28.1328 42.4625 28.0414 43.25 28.0414C44.0375 28.0414 44.8109 28.1328 45.5492 28.3016C46.0273 28.407 46.3438 28.85 46.3438 29.3422V31.4937C46.8992 31.7328 47.4266 32.0352 47.9117 32.3938L49.6625 31.3883C50.0914 31.1422 50.6258 31.1984 50.9633 31.557C51.4977 32.1266 51.9688 32.7664 52.3766 33.4695C52.7844 34.1727 53.1008 34.9039 53.3258 35.6492C53.4734 36.1203 53.2484 36.6125 52.8195 36.8586L51.0617 37.8711C51.0898 38.1523 51.1109 38.4406 51.1109 38.7359C51.1109 39.0312 51.0969 39.3125 51.0617 39.6008L52.8195 40.6133C53.2484 40.8594 53.4664 41.3516 53.3258 41.8227C53.0938 42.568 52.7773 43.2992 52.3766 44.0023C51.9758 44.7055 51.4977 45.3453 50.9633 45.9148C50.6258 46.2734 50.0844 46.3297 49.6625 46.0836L47.9117 45.0781C47.4266 45.4367 46.9062 45.7391 46.3438 45.9781V48.1297C46.3438 48.6219 46.0273 49.0648 45.5492 49.1703C44.8109 49.3391 44.0375 49.4305 43.25 49.4305C42.4625 49.4305 41.6891 49.3391 40.9508 49.1703C40.4727 49.0648 40.1562 48.6219 40.1562 48.1297V45.9852C39.5938 45.7461 39.0594 45.4438 38.5742 45.0781L36.8375 46.0836C36.4086 46.3297 35.8742 46.2734 35.5367 45.9148C35.0023 45.3453 34.5312 44.7055 34.1234 44.0023C33.7156 43.2992 33.3992 42.568 33.1742 41.8227C33.0266 41.3516 33.2516 40.8594 33.6805 40.6133L35.4242 39.6078C35.3961 39.3195 35.375 39.0312 35.375 38.7359C35.375 38.4406 35.3891 38.1523 35.4242 37.8641L33.6734 36.8516C33.2445 36.6055 33.0266 36.1133 33.1672 35.6422C33.3992 34.8969 33.7086 34.1656 34.1164 33.4625C34.5242 32.7594 34.9953 32.1195 35.5297 31.55C35.8672 31.1914 36.4016 31.1352 36.8305 31.3813L38.5742 32.3867C39.0594 32.0281 39.5938 31.7258 40.1562 31.4797V29.3352V29.3422ZM46.632 38.7289C46.6529 38.2723 46.5809 37.8161 46.4205 37.3881C46.2601 36.96 46.0146 36.5689 45.6989 36.2384C45.3831 35.9079 45.0036 35.6448 44.5833 35.4651C44.163 35.2854 43.7106 35.1927 43.2535 35.1927C42.7964 35.1927 42.344 35.2854 41.9237 35.4651C41.5034 35.6448 41.1239 35.9079 40.8082 36.2384C40.4924 36.5689 40.2469 36.96 40.0865 37.3881C39.9261 37.8161 39.8542 38.2723 39.875 38.7289C39.8542 39.1855 39.9261 39.6417 40.0865 40.0697C40.2469 40.4978 40.4924 40.8889 40.8082 41.2194C41.1239 41.5499 41.5034 41.813 41.9237 41.9927C42.344 42.1724 42.7964 42.2651 43.2535 42.2651C43.7106 42.2651 44.163 42.1724 44.5833 41.9927C45.0036 41.813 45.3831 41.5499 45.6989 41.2194C46.0146 40.8889 46.2601 40.4978 46.4205 40.0697C46.5809 39.6417 46.6529 39.1855 46.632 38.7289Z" fill="#1E40AE"/>
</g>
<defs>
<clipPath id="clip0_0_386">
<rect width="45" height="36" fill="white" transform="translate(9.5 14)"/>
</clipPath>
</defs>
</svg>
