<svg width="64" height="64" viewBox="0 0 64 64" fill="none" xmlns="http://www.w3.org/2000/svg">
<circle opacity="0.1" cx="32" cy="32" r="32" fill="#64748B"/>
<g clip-path="url(#clip0_0_397)">
<path d="M21.875 17.9375V20.75H33.125V17.9375C33.125 17.6281 32.8719 17.375 32.5625 17.375H22.4375C22.1281 17.375 21.875 17.6281 21.875 17.9375ZM18.5 20.75V17.9375C18.5 15.7648 20.2648 14 22.4375 14H32.5625C34.7352 14 36.5 15.7648 36.5 17.9375V20.75H41C43.482 20.75 45.5 22.768 45.5 25.25V27.5492C45.1273 27.5141 44.7547 27.5 44.375 27.5C43.6086 27.5 42.8563 27.5703 42.125 27.7039V25.25C42.125 24.6313 41.6188 24.125 41 24.125H34.8125H20.1875H14C13.3812 24.125 12.875 24.6313 12.875 25.25V32H23H34.25H34.8266C33.2867 33.8703 32.2812 36.1977 32.0492 38.75H32H25.25C24.0055 38.75 23 37.7445 23 36.5V35.375H12.875V43.25C12.875 43.8687 13.3812 44.375 14 44.375H32.8438C33.3289 45.6055 33.9969 46.7445 34.8266 47.75H14C11.518 47.75 9.5 45.732 9.5 43.25V33.6875V25.25C9.5 22.768 11.518 20.75 14 20.75H18.5ZM34.25 39.875C34.25 37.1897 35.3167 34.6144 37.2155 32.7155C39.1144 30.8167 41.6897 29.75 44.375 29.75C47.0603 29.75 49.6356 30.8167 51.5345 32.7155C53.4333 34.6144 54.5 37.1897 54.5 39.875C54.5 42.5603 53.4333 45.1356 51.5345 47.0345C49.6356 48.9333 47.0603 50 44.375 50C41.6897 50 39.1144 48.9333 37.2155 47.0345C35.3167 45.1356 34.25 42.5603 34.25 39.875ZM44.375 34.25C43.7562 34.25 43.25 34.7563 43.25 35.375V39.875C43.25 40.4937 43.7562 41 44.375 41H47.75C48.3688 41 48.875 40.4937 48.875 39.875C48.875 39.2563 48.3688 38.75 47.75 38.75H45.5V35.375C45.5 34.7563 44.9938 34.25 44.375 34.25Z" fill="#1E40AF"/>
</g>
<defs>
<clipPath id="clip0_0_397">
<rect width="45" height="36" fill="white" transform="translate(9.5 14)"/>
</clipPath>
</defs>
</svg>
