<svg width="36" height="36" viewBox="0 0 36 36" fill="none" xmlns="http://www.w3.org/2000/svg">
<g clip-path="url(#clip0_0_123)">
<path d="M20.8828 4.00781L18.6328 6.25781L17.4375 7.45312L15.0539 5.0625L16.2492 3.86719L18.4992 1.61719L19.6945 0.421875L22.0711 2.8125L20.8828 4.00781ZM34.3828 17.5078L32.1328 19.7578L30.9375 20.9531L28.5539 18.5625L29.7492 17.3672L31.9992 15.1172L33.1945 13.9219L35.5711 16.3125L34.3758 17.5078H34.3828ZM35.5781 2.8125L34.3828 4.00781L25.3828 13.0078L24.1875 14.2031L21.8039 11.8125L22.9992 10.6172L31.9922 1.61719L33.1875 0.421875L35.5711 2.8125H35.5781ZM15.4828 13.9359L17.8031 18.6398L22.9922 19.3922L27.1969 20.0039L24.1523 22.9711L20.3977 26.6344L21.2836 31.8023L22.0078 36L18.2461 34.0242L13.6055 31.5844L8.96484 34.0242L5.19609 36L5.91328 31.8094L6.79922 26.6414L3.04453 22.9781L0 20.0109L4.20469 19.3992L9.39375 18.6469L11.7141 13.943L13.6055 10.125L15.4898 13.9359H15.4828ZM17.318 21.9797L15.5602 21.7266L14.7727 20.1375L13.5984 17.7539L12.4242 20.1375L11.6438 21.7266L9.88594 21.9797L7.25625 22.3594L9.16172 24.2156L10.4344 25.4531L10.125 27.2109L9.675 29.8336L12.0305 28.5961L13.5984 27.7734L15.1664 28.5961L17.5219 29.8336L17.0789 27.2109L16.7766 25.4602L18.0492 24.2227L19.9547 22.3664L17.325 21.9867L17.318 21.9797Z" fill="#1E40AF"/>
</g>
<defs>
<clipPath id="clip0_0_123">
<rect width="36" height="36" fill="white"/>
</clipPath>
</defs>
</svg>
